%
M48
M72
T01C0.0240
T02C0.0280
T03C0.0320
T04C0.0350
T05C0.0400
T06C0.1250
%
T01
X16355Y15784
T02
X10055Y15264
X18785Y6924
X15785Y5874
X28305Y11474
X28255Y12464
T03
X29795Y16724
X29795Y17724
X20785Y13274
X19785Y13274
X18785Y13274
X17785Y13274
X16785Y13274
X15785Y13274
X14785Y13274
X14785Y10274
X15785Y10274
X16785Y10274
X17785Y10274
X18785Y10274
X19785Y10274
X20785Y10274
X29795Y6124
X29795Y5124
X29795Y4124
X29795Y3124
T04
X2785Y3908
X2785Y5640
X6280Y14725
X7280Y15225
X6280Y15725
X7280Y16225
X6280Y16725
X7280Y17225
T05
X22785Y13274
X22785Y12274
X22785Y11274
X22785Y10274
X29785Y9774
X29785Y10774
X29785Y11774
X29785Y12774
X29785Y13774
T06
X3780Y13975
X3780Y17975
M30
