G04 start of page 8 for group -4015 idx -4015
G04 Title: (unknown), toppaste *
G04 Creator: pcb 20080202 *
G04 CreationDate: Thu 01 Apr 2010 01:26:29 PM GMT UTC *
G04 For: ed *
G04 Format: Gerber/RS-274X *
G04 PCB-Dimensions: 162499 149999 *
G04 PCB-Coordinate-Origin: lower left *
%MOIN*%
%FSLAX24Y24*%
%LNFRONTPASTE*%
%ADD21R,0.0161X0.0161*%
%ADD22R,0.0480X0.0480*%
%ADD23R,0.0340X0.0340*%
G54D22*X7848Y12430D02*X8208D01*
X7848Y11470D02*X8208D01*
G54D23*X5898Y11575D02*X5958D01*
X5898Y12355D02*X5958D01*
X5078Y11965D02*X5138D01*
G54D22*X6589Y7507D02*Y7147D01*
X7549Y7507D02*Y7147D01*
X11020Y10416D02*X11380D01*
X11020Y9456D02*X11380D01*
G54D21*X5837Y10085D02*X6109D01*
X5837Y9829D02*X6109D01*
X5837Y9573D02*X6109D01*
X5837Y9317D02*X6109D01*
X5837Y9062D02*X6109D01*
X5837Y8806D02*X6109D01*
X5837Y8550D02*X6109D01*
X5837Y8294D02*X6109D01*
X8002D02*X8274D01*
X8002Y8550D02*X8274D01*
X8002Y8806D02*X8274D01*
X8002Y9062D02*X8274D01*
X8002Y9317D02*X8274D01*
X8002Y9573D02*X8274D01*
X8002Y9829D02*X8274D01*
X8002Y10085D02*X8274D01*
M02*
