%FSLAX46Y46*%
G04 Gerber Fmt 4.6, Leading zero omitted, Abs format (unit mm)*
G04 Created by KiCad (PCBNEW (2014-10-27 BZR 5228)-product) date 4/13/2015 9:46:14 PM*
%MOMM*%
G01*
G04 APERTURE LIST*
%ADD10C,0.100000*%
%ADD11R,1.727200X1.727200*%
%ADD12O,1.727200X1.727200*%
%ADD13O,1.447800X1.447800*%
%ADD14C,1.524000*%
%ADD15C,3.810000*%
%ADD16C,0.889000*%
%ADD17C,0.254000*%
%ADD18C,0.304800*%
%ADD19C,0.609600*%
G04 APERTURE END LIST*
D10*
D11*
X162560000Y-96520000D03*
D12*
X160020000Y-96520000D03*
X162560000Y-99060000D03*
X160020000Y-99060000D03*
X162560000Y-101600000D03*
X160020000Y-101600000D03*
X162560000Y-104140000D03*
X160020000Y-104140000D03*
X162560000Y-106680000D03*
X160020000Y-106680000D03*
X162560000Y-109220000D03*
X160020000Y-109220000D03*
X162560000Y-111760000D03*
X160020000Y-111760000D03*
X162560000Y-114300000D03*
X160020000Y-114300000D03*
X162560000Y-116840000D03*
X160020000Y-116840000D03*
X162560000Y-119380000D03*
X160020000Y-119380000D03*
X162560000Y-121920000D03*
X160020000Y-121920000D03*
X162560000Y-124460000D03*
X160020000Y-124460000D03*
X162560000Y-127000000D03*
X160020000Y-127000000D03*
X162560000Y-129540000D03*
X160020000Y-129540000D03*
D11*
X185420000Y-96520000D03*
D12*
X182880000Y-96520000D03*
X185420000Y-99060000D03*
X182880000Y-99060000D03*
X185420000Y-101600000D03*
X182880000Y-101600000D03*
X185420000Y-104140000D03*
X182880000Y-104140000D03*
X185420000Y-106680000D03*
X182880000Y-106680000D03*
X185420000Y-109220000D03*
X182880000Y-109220000D03*
X185420000Y-111760000D03*
X182880000Y-111760000D03*
X185420000Y-114300000D03*
X182880000Y-114300000D03*
X185420000Y-116840000D03*
X182880000Y-116840000D03*
X185420000Y-119380000D03*
X182880000Y-119380000D03*
X185420000Y-121920000D03*
X182880000Y-121920000D03*
X185420000Y-124460000D03*
X182880000Y-124460000D03*
X185420000Y-127000000D03*
X182880000Y-127000000D03*
X185420000Y-129540000D03*
X182880000Y-129540000D03*
D13*
X165100000Y-96520000D03*
X165100000Y-99060000D03*
X165100000Y-101600000D03*
X165100000Y-104140000D03*
X165100000Y-106680000D03*
X165100000Y-109220000D03*
X165100000Y-111760000D03*
X165100000Y-114300000D03*
X165100000Y-116840000D03*
X165100000Y-119380000D03*
X165100000Y-121920000D03*
X165100000Y-124460000D03*
X165100000Y-127000000D03*
X165100000Y-129540000D03*
X167640000Y-129540000D03*
X170180000Y-129540000D03*
X172720000Y-129540000D03*
X175260000Y-129540000D03*
X177800000Y-129540000D03*
X180340000Y-129540000D03*
X180340000Y-127000000D03*
X180340000Y-124460000D03*
X180340000Y-121920000D03*
X180340000Y-119380000D03*
X180340000Y-116840000D03*
X180340000Y-114300000D03*
X180340000Y-111760000D03*
X180340000Y-109220000D03*
X180340000Y-106680000D03*
X180340000Y-104140000D03*
X180340000Y-101600000D03*
X180340000Y-99060000D03*
X180340000Y-96520000D03*
D14*
X180848000Y-134620000D03*
X178308000Y-134620000D03*
X183388000Y-134620000D03*
X177038000Y-137160000D03*
X179578000Y-137160000D03*
X182118000Y-137160000D03*
D15*
X186944000Y-139192000D03*
X173482000Y-139192000D03*
D16*
X168910000Y-137668000D03*
X162306000Y-137668000D03*
X165608000Y-135382000D03*
X163322000Y-140208000D03*
D17*
X179578000Y-137160000D02*
X179578000Y-137922000D01*
D18*
X179578000Y-137922000D02*
X180848000Y-139192000D01*
X180848000Y-139192000D02*
X183642000Y-139192000D01*
X183642000Y-139192000D02*
X187452000Y-135382000D01*
X187452000Y-135382000D02*
X187452000Y-98552000D01*
X187452000Y-98552000D02*
X185420000Y-96520000D01*
D19*
X182880000Y-96520000D02*
X185420000Y-96520000D01*
X180340000Y-96520000D02*
X182880000Y-96520000D01*
D18*
X180848000Y-134620000D02*
X180848000Y-133350000D01*
X168402000Y-104140000D02*
X165100000Y-104140000D01*
X173990000Y-109728000D02*
X168402000Y-104140000D01*
X173990000Y-131064000D02*
X173990000Y-109728000D01*
X175768000Y-132842000D02*
X173990000Y-131064000D01*
X180340000Y-132842000D02*
X175768000Y-132842000D01*
X180848000Y-133350000D02*
X180340000Y-132842000D01*
D19*
X162560000Y-104140000D02*
X160020000Y-104140000D01*
X165100000Y-104140000D02*
X162560000Y-104140000D01*
X162560000Y-96520000D02*
X160020000Y-96520000D01*
X165100000Y-96520000D02*
X162560000Y-96520000D01*
X162560000Y-129540000D02*
X160020000Y-129540000D01*
X165100000Y-129540000D02*
X162560000Y-129540000D01*
D17*
X162306000Y-137668000D02*
X168910000Y-137668000D01*
D19*
X182880000Y-129540000D02*
X185420000Y-129540000D01*
X180340000Y-129540000D02*
X182880000Y-129540000D01*
X162560000Y-127000000D02*
X160020000Y-127000000D01*
X165100000Y-127000000D02*
X162560000Y-127000000D01*
D18*
X166370000Y-125730000D02*
X165100000Y-124460000D01*
X166370000Y-134620000D02*
X166370000Y-125730000D01*
X165608000Y-135382000D02*
X166370000Y-134620000D01*
D19*
X162560000Y-124460000D02*
X160020000Y-124460000D01*
X165100000Y-124460000D02*
X162560000Y-124460000D01*
X162560000Y-99060000D02*
X160020000Y-99060000D01*
X165100000Y-99060000D02*
X162560000Y-99060000D01*
X162560000Y-101600000D02*
X160020000Y-101600000D01*
X165100000Y-101600000D02*
X162560000Y-101600000D01*
X162560000Y-106680000D02*
X160020000Y-106680000D01*
X165100000Y-106680000D02*
X162560000Y-106680000D01*
X162560000Y-109220000D02*
X160020000Y-109220000D01*
X165100000Y-109220000D02*
X162560000Y-109220000D01*
X162560000Y-111760000D02*
X160020000Y-111760000D01*
X165100000Y-111760000D02*
X162560000Y-111760000D01*
X162560000Y-114300000D02*
X160020000Y-114300000D01*
X165100000Y-114300000D02*
X162560000Y-114300000D01*
X162560000Y-116840000D02*
X160020000Y-116840000D01*
X165100000Y-116840000D02*
X162560000Y-116840000D01*
X162560000Y-119380000D02*
X160020000Y-119380000D01*
X165100000Y-119380000D02*
X162560000Y-119380000D01*
X162560000Y-121920000D02*
X160020000Y-121920000D01*
X165100000Y-121920000D02*
X162560000Y-121920000D01*
X182880000Y-111760000D02*
X185420000Y-111760000D01*
X180340000Y-111760000D02*
X182880000Y-111760000D01*
X182880000Y-114300000D02*
X180340000Y-114300000D01*
X185420000Y-114300000D02*
X182880000Y-114300000D01*
X182880000Y-116840000D02*
X185420000Y-116840000D01*
X180340000Y-116840000D02*
X182880000Y-116840000D01*
X182880000Y-119380000D02*
X180340000Y-119380000D01*
X185420000Y-119380000D02*
X182880000Y-119380000D01*
X182880000Y-121920000D02*
X185420000Y-121920000D01*
X180340000Y-121920000D02*
X182880000Y-121920000D01*
X182880000Y-124460000D02*
X180340000Y-124460000D01*
X185420000Y-124460000D02*
X182880000Y-124460000D01*
X182880000Y-127000000D02*
X185420000Y-127000000D01*
X180340000Y-127000000D02*
X182880000Y-127000000D01*
D18*
X171450000Y-130810000D02*
X170180000Y-129540000D01*
X171450000Y-135890000D02*
X171450000Y-130810000D01*
X170688000Y-136652000D02*
X171450000Y-135890000D01*
X170688000Y-139954000D02*
X170688000Y-136652000D01*
X170434000Y-140208000D02*
X170688000Y-139954000D01*
X163322000Y-140208000D02*
X170434000Y-140208000D01*
D19*
X182880000Y-101600000D02*
X185420000Y-101600000D01*
X180340000Y-101600000D02*
X182880000Y-101600000D01*
X182880000Y-104140000D02*
X180340000Y-104140000D01*
X185420000Y-104140000D02*
X182880000Y-104140000D01*
X182880000Y-106680000D02*
X185420000Y-106680000D01*
X180340000Y-106680000D02*
X182880000Y-106680000D01*
X182880000Y-109220000D02*
X180340000Y-109220000D01*
X185420000Y-109220000D02*
X182880000Y-109220000D01*
X182880000Y-99060000D02*
X180340000Y-99060000D01*
X185420000Y-99060000D02*
X182880000Y-99060000D01*
M02*
