%FSLAX46Y46*%
G04 Gerber Fmt 4.6, Leading zero omitted, Abs format (unit mm)*
G04 Created by KiCad (PCBNEW (2014-10-27 BZR 5228)-product) date 4/13/2015 9:46:14 PM*
%MOMM*%
G01*
G04 APERTURE LIST*
%ADD10C,0.100000*%
%ADD11R,1.727200X1.727200*%
%ADD12O,1.727200X1.727200*%
%ADD13R,1.399540X1.498600*%
%ADD14R,1.297940X1.498600*%
%ADD15R,0.698500X1.747520*%
%ADD16R,0.698500X2.032000*%
%ADD17R,0.797560X1.498600*%
%ADD18R,1.399540X0.998220*%
%ADD19R,0.797560X1.399540*%
%ADD20R,0.998220X1.549400*%
%ADD21O,1.447800X1.447800*%
%ADD22R,1.800860X1.597660*%
%ADD23R,1.500000X1.300000*%
%ADD24R,1.300000X1.500000*%
%ADD25C,1.524000*%
%ADD26C,3.810000*%
G04 APERTURE END LIST*
D10*
D11*
X162560000Y-96520000D03*
D12*
X160020000Y-96520000D03*
X162560000Y-99060000D03*
X160020000Y-99060000D03*
X162560000Y-101600000D03*
X160020000Y-101600000D03*
X162560000Y-104140000D03*
X160020000Y-104140000D03*
X162560000Y-106680000D03*
X160020000Y-106680000D03*
X162560000Y-109220000D03*
X160020000Y-109220000D03*
X162560000Y-111760000D03*
X160020000Y-111760000D03*
X162560000Y-114300000D03*
X160020000Y-114300000D03*
X162560000Y-116840000D03*
X160020000Y-116840000D03*
X162560000Y-119380000D03*
X160020000Y-119380000D03*
X162560000Y-121920000D03*
X160020000Y-121920000D03*
X162560000Y-124460000D03*
X160020000Y-124460000D03*
X162560000Y-127000000D03*
X160020000Y-127000000D03*
X162560000Y-129540000D03*
X160020000Y-129540000D03*
D11*
X185420000Y-96520000D03*
D12*
X182880000Y-96520000D03*
X185420000Y-99060000D03*
X182880000Y-99060000D03*
X185420000Y-101600000D03*
X182880000Y-101600000D03*
X185420000Y-104140000D03*
X182880000Y-104140000D03*
X185420000Y-106680000D03*
X182880000Y-106680000D03*
X185420000Y-109220000D03*
X182880000Y-109220000D03*
X185420000Y-111760000D03*
X182880000Y-111760000D03*
X185420000Y-114300000D03*
X182880000Y-114300000D03*
X185420000Y-116840000D03*
X182880000Y-116840000D03*
X185420000Y-119380000D03*
X182880000Y-119380000D03*
X185420000Y-121920000D03*
X182880000Y-121920000D03*
X185420000Y-124460000D03*
X182880000Y-124460000D03*
X185420000Y-127000000D03*
X182880000Y-127000000D03*
X185420000Y-129540000D03*
X182880000Y-129540000D03*
D13*
X169128440Y-142961360D03*
D14*
X157827980Y-142961360D03*
D15*
X159077660Y-143060420D03*
X160129220Y-143060420D03*
D16*
X161229040Y-143060420D03*
D15*
X162328860Y-143060420D03*
D16*
X163428680Y-143060420D03*
D15*
X164528500Y-143060420D03*
X165628320Y-143060420D03*
X166728140Y-143060420D03*
D17*
X157528260Y-135361680D03*
D18*
X157827980Y-133860540D03*
D19*
X169428160Y-134711440D03*
D20*
X169077640Y-132260340D03*
D21*
X165100000Y-96520000D03*
X165100000Y-99060000D03*
X165100000Y-101600000D03*
X165100000Y-104140000D03*
X165100000Y-106680000D03*
X165100000Y-109220000D03*
X165100000Y-111760000D03*
X165100000Y-114300000D03*
X165100000Y-116840000D03*
X165100000Y-119380000D03*
X165100000Y-121920000D03*
X165100000Y-124460000D03*
X165100000Y-127000000D03*
X165100000Y-129540000D03*
X167640000Y-129540000D03*
X170180000Y-129540000D03*
X172720000Y-129540000D03*
X175260000Y-129540000D03*
X177800000Y-129540000D03*
X180340000Y-129540000D03*
X180340000Y-127000000D03*
X180340000Y-124460000D03*
X180340000Y-121920000D03*
X180340000Y-119380000D03*
X180340000Y-116840000D03*
X180340000Y-114300000D03*
X180340000Y-111760000D03*
X180340000Y-109220000D03*
X180340000Y-106680000D03*
X180340000Y-104140000D03*
X180340000Y-101600000D03*
X180340000Y-99060000D03*
X180340000Y-96520000D03*
D22*
X157480000Y-99209860D03*
X157480000Y-96370140D03*
D23*
X174070000Y-125730000D03*
X171370000Y-125730000D03*
D24*
X157480000Y-105236000D03*
X157480000Y-102536000D03*
D23*
X174070000Y-104140000D03*
X171370000Y-104140000D03*
D25*
X180848000Y-134620000D03*
X178308000Y-134620000D03*
X183388000Y-134620000D03*
X177038000Y-137160000D03*
X179578000Y-137160000D03*
X182118000Y-137160000D03*
D26*
X186944000Y-139192000D03*
X173482000Y-139192000D03*
M02*
