%FSLAX46Y46*%
G04 Gerber Fmt 4.6, Leading zero omitted, Abs format (unit mm)*
G04 Created by KiCad (PCBNEW (2014-10-27 BZR 5228)-product) date 4/13/2015 9:46:14 PM*
%MOMM*%
G01*
G04 APERTURE LIST*
%ADD10C,0.100000*%
%ADD11C,0.158750*%
%ADD12C,0.150000*%
%ADD13C,0.127000*%
%ADD14C,0.203200*%
%ADD15C,0.096520*%
G04 APERTURE END LIST*
D10*
D11*
X155847143Y-98733429D02*
X155877381Y-98642715D01*
X155907619Y-98612476D01*
X155968095Y-98582238D01*
X156058810Y-98582238D01*
X156119286Y-98612476D01*
X156149524Y-98642715D01*
X156179762Y-98703191D01*
X156179762Y-98945096D01*
X155544762Y-98945096D01*
X155544762Y-98733429D01*
X155575000Y-98672953D01*
X155605238Y-98642715D01*
X155665714Y-98612476D01*
X155726190Y-98612476D01*
X155786667Y-98642715D01*
X155816905Y-98672953D01*
X155847143Y-98733429D01*
X155847143Y-98945096D01*
X156179762Y-98219381D02*
X156149524Y-98279857D01*
X156089048Y-98310096D01*
X155544762Y-98310096D01*
X156179762Y-97977477D02*
X155756429Y-97977477D01*
X155544762Y-97977477D02*
X155575000Y-98007715D01*
X155605238Y-97977477D01*
X155575000Y-97947238D01*
X155544762Y-97977477D01*
X155605238Y-97977477D01*
X155756429Y-97675096D02*
X156179762Y-97675096D01*
X155816905Y-97675096D02*
X155786667Y-97644857D01*
X155756429Y-97584381D01*
X155756429Y-97493667D01*
X155786667Y-97433191D01*
X155847143Y-97402953D01*
X156179762Y-97402953D01*
X156179762Y-97100572D02*
X155544762Y-97100572D01*
X155937857Y-97040095D02*
X156179762Y-96858667D01*
X155756429Y-96858667D02*
X155998333Y-97100572D01*
X167165262Y-98712262D02*
X167225738Y-98712262D01*
X167286214Y-98742500D01*
X167316452Y-98772738D01*
X167346690Y-98833214D01*
X167376929Y-98954167D01*
X167376929Y-99105357D01*
X167346690Y-99226310D01*
X167316452Y-99286786D01*
X167286214Y-99317024D01*
X167225738Y-99347262D01*
X167165262Y-99347262D01*
X167104786Y-99317024D01*
X167074548Y-99286786D01*
X167044309Y-99226310D01*
X167014071Y-99105357D01*
X167014071Y-98954167D01*
X167044309Y-98833214D01*
X167074548Y-98772738D01*
X167104786Y-98742500D01*
X167165262Y-98712262D01*
X157727952Y-113698262D02*
X157607000Y-113698262D01*
X157546524Y-113728500D01*
X157516286Y-113758738D01*
X157455809Y-113849452D01*
X157425571Y-113970405D01*
X157425571Y-114212310D01*
X157455809Y-114272786D01*
X157486048Y-114303024D01*
X157546524Y-114333262D01*
X157667476Y-114333262D01*
X157727952Y-114303024D01*
X157758190Y-114272786D01*
X157788429Y-114212310D01*
X157788429Y-114061119D01*
X157758190Y-114000643D01*
X157727952Y-113970405D01*
X157667476Y-113940167D01*
X157546524Y-113940167D01*
X157486048Y-113970405D01*
X157455809Y-114000643D01*
X157425571Y-114061119D01*
X157613048Y-124683762D02*
X157250190Y-124683762D01*
X157431619Y-124683762D02*
X157431619Y-124048762D01*
X157371143Y-124139476D01*
X157310667Y-124199952D01*
X157250190Y-124230190D01*
X158006143Y-124048762D02*
X158066619Y-124048762D01*
X158127095Y-124079000D01*
X158157333Y-124109238D01*
X158187571Y-124169714D01*
X158217810Y-124290667D01*
X158217810Y-124441857D01*
X158187571Y-124562810D01*
X158157333Y-124623286D01*
X158127095Y-124653524D01*
X158066619Y-124683762D01*
X158006143Y-124683762D01*
X157945667Y-124653524D01*
X157915429Y-124623286D01*
X157885190Y-124562810D01*
X157854952Y-124441857D01*
X157854952Y-124290667D01*
X157885190Y-124169714D01*
X157915429Y-124109238D01*
X157945667Y-124079000D01*
X158006143Y-124048762D01*
X187712048Y-114587262D02*
X187349190Y-114587262D01*
X187530619Y-114587262D02*
X187530619Y-113952262D01*
X187470143Y-114042976D01*
X187409667Y-114103452D01*
X187349190Y-114133690D01*
X188014429Y-114587262D02*
X188135381Y-114587262D01*
X188195857Y-114557024D01*
X188226095Y-114526786D01*
X188286571Y-114436071D01*
X188316810Y-114315119D01*
X188316810Y-114073214D01*
X188286571Y-114012738D01*
X188256333Y-113982500D01*
X188195857Y-113952262D01*
X188074905Y-113952262D01*
X188014429Y-113982500D01*
X187984190Y-114012738D01*
X187953952Y-114073214D01*
X187953952Y-114224405D01*
X187984190Y-114284881D01*
X188014429Y-114315119D01*
X188074905Y-114345357D01*
X188195857Y-114345357D01*
X188256333Y-114315119D01*
X188286571Y-114284881D01*
X188316810Y-114224405D01*
X187648548Y-124810762D02*
X187285690Y-124810762D01*
X187467119Y-124810762D02*
X187467119Y-124175762D01*
X187406643Y-124266476D01*
X187346167Y-124326952D01*
X187285690Y-124357190D01*
X188223071Y-124175762D02*
X187920690Y-124175762D01*
X187890452Y-124478143D01*
X187920690Y-124447905D01*
X187981167Y-124417667D01*
X188132357Y-124417667D01*
X188192833Y-124447905D01*
X188223071Y-124478143D01*
X188253310Y-124538619D01*
X188253310Y-124689810D01*
X188223071Y-124750286D01*
X188192833Y-124780524D01*
X188132357Y-124810762D01*
X187981167Y-124810762D01*
X187920690Y-124780524D01*
X187890452Y-124750286D01*
X187285690Y-108996238D02*
X187315928Y-108966000D01*
X187376405Y-108935762D01*
X187527595Y-108935762D01*
X187588071Y-108966000D01*
X187618309Y-108996238D01*
X187648548Y-109056714D01*
X187648548Y-109117190D01*
X187618309Y-109207905D01*
X187255452Y-109570762D01*
X187648548Y-109570762D01*
X188253310Y-109570762D02*
X187890452Y-109570762D01*
X188071881Y-109570762D02*
X188071881Y-108935762D01*
X188011405Y-109026476D01*
X187950929Y-109086952D01*
X187890452Y-109117190D01*
X187648548Y-119730762D02*
X187285690Y-119730762D01*
X187467119Y-119730762D02*
X187467119Y-119095762D01*
X187406643Y-119186476D01*
X187346167Y-119246952D01*
X187285690Y-119277190D01*
X187860214Y-119095762D02*
X188283548Y-119095762D01*
X188011405Y-119730762D01*
X157546524Y-119304405D02*
X157486048Y-119274167D01*
X157455809Y-119243929D01*
X157425571Y-119183452D01*
X157425571Y-119153214D01*
X157455809Y-119092738D01*
X157486048Y-119062500D01*
X157546524Y-119032262D01*
X157667476Y-119032262D01*
X157727952Y-119062500D01*
X157758190Y-119092738D01*
X157788429Y-119153214D01*
X157788429Y-119183452D01*
X157758190Y-119243929D01*
X157727952Y-119274167D01*
X157667476Y-119304405D01*
X157546524Y-119304405D01*
X157486048Y-119334643D01*
X157455809Y-119364881D01*
X157425571Y-119425357D01*
X157425571Y-119546310D01*
X157455809Y-119606786D01*
X157486048Y-119637024D01*
X157546524Y-119667262D01*
X157667476Y-119667262D01*
X157727952Y-119637024D01*
X157758190Y-119606786D01*
X157788429Y-119546310D01*
X157788429Y-119425357D01*
X157758190Y-119364881D01*
X157727952Y-119334643D01*
X157667476Y-119304405D01*
X157664452Y-109020429D02*
X157664452Y-109443762D01*
X157513262Y-108778524D02*
X157362071Y-109232095D01*
X157755167Y-109232095D01*
X157613048Y-129954262D02*
X157250190Y-129954262D01*
X157431619Y-129954262D02*
X157431619Y-129319262D01*
X157371143Y-129409976D01*
X157310667Y-129470452D01*
X157250190Y-129500690D01*
X157854952Y-129379738D02*
X157885190Y-129349500D01*
X157945667Y-129319262D01*
X158096857Y-129319262D01*
X158157333Y-129349500D01*
X158187571Y-129379738D01*
X158217810Y-129440214D01*
X158217810Y-129500690D01*
X158187571Y-129591405D01*
X157824714Y-129954262D01*
X158217810Y-129954262D01*
X187648548Y-129954262D02*
X187285690Y-129954262D01*
X187467119Y-129954262D02*
X187467119Y-129319262D01*
X187406643Y-129409976D01*
X187346167Y-129470452D01*
X187285690Y-129500690D01*
X187860214Y-129319262D02*
X188253310Y-129319262D01*
X188041643Y-129561167D01*
X188132357Y-129561167D01*
X188192833Y-129591405D01*
X188223071Y-129621643D01*
X188253310Y-129682119D01*
X188253310Y-129833310D01*
X188223071Y-129893786D01*
X188192833Y-129924024D01*
X188132357Y-129954262D01*
X187950929Y-129954262D01*
X187890452Y-129924024D01*
X187860214Y-129893786D01*
X187285690Y-103979738D02*
X187315928Y-103949500D01*
X187376405Y-103919262D01*
X187527595Y-103919262D01*
X187588071Y-103949500D01*
X187618309Y-103979738D01*
X187648548Y-104040214D01*
X187648548Y-104100690D01*
X187618309Y-104191405D01*
X187255452Y-104554262D01*
X187648548Y-104554262D01*
X187860214Y-103919262D02*
X188253310Y-103919262D01*
X188041643Y-104161167D01*
X188132357Y-104161167D01*
X188192833Y-104191405D01*
X188223071Y-104221643D01*
X188253310Y-104282119D01*
X188253310Y-104433310D01*
X188223071Y-104493786D01*
X188192833Y-104524024D01*
X188132357Y-104554262D01*
X187950929Y-104554262D01*
X187890452Y-104524024D01*
X187860214Y-104493786D01*
X187213119Y-101379262D02*
X187606215Y-101379262D01*
X187394548Y-101621167D01*
X187485262Y-101621167D01*
X187545738Y-101651405D01*
X187575976Y-101681643D01*
X187606215Y-101742119D01*
X187606215Y-101893310D01*
X187575976Y-101953786D01*
X187545738Y-101984024D01*
X187485262Y-102014262D01*
X187303834Y-102014262D01*
X187243357Y-101984024D01*
X187213119Y-101953786D01*
X187878357Y-101953786D02*
X187908596Y-101984024D01*
X187878357Y-102014262D01*
X187848119Y-101984024D01*
X187878357Y-101953786D01*
X187878357Y-102014262D01*
X188120262Y-101379262D02*
X188513358Y-101379262D01*
X188301691Y-101621167D01*
X188392405Y-101621167D01*
X188452881Y-101651405D01*
X188483119Y-101681643D01*
X188513358Y-101742119D01*
X188513358Y-101893310D01*
X188483119Y-101953786D01*
X188452881Y-101984024D01*
X188392405Y-102014262D01*
X188210977Y-102014262D01*
X188150500Y-101984024D01*
X188120262Y-101953786D01*
X188694786Y-101379262D02*
X188906453Y-102014262D01*
X189118120Y-101379262D01*
X187349190Y-99292833D02*
X187651571Y-99292833D01*
X187288714Y-99474262D02*
X187500381Y-98839262D01*
X187712048Y-99474262D01*
X188256334Y-98869500D02*
X188195857Y-98839262D01*
X188105143Y-98839262D01*
X188014429Y-98869500D01*
X187953953Y-98929976D01*
X187923714Y-98990452D01*
X187893476Y-99111405D01*
X187893476Y-99202119D01*
X187923714Y-99323071D01*
X187953953Y-99383548D01*
X188014429Y-99444024D01*
X188105143Y-99474262D01*
X188165619Y-99474262D01*
X188256334Y-99444024D01*
X188286572Y-99413786D01*
X188286572Y-99202119D01*
X188165619Y-99202119D01*
X188558714Y-99474262D02*
X188558714Y-98839262D01*
X188921572Y-99474262D01*
X188921572Y-98839262D01*
X189223952Y-99474262D02*
X189223952Y-98839262D01*
X189375143Y-98839262D01*
X189465857Y-98869500D01*
X189526333Y-98929976D01*
X189556572Y-98990452D01*
X189586810Y-99111405D01*
X189586810Y-99202119D01*
X189556572Y-99323071D01*
X189526333Y-99383548D01*
X189465857Y-99444024D01*
X189375143Y-99474262D01*
X189223952Y-99474262D01*
X186937952Y-96299262D02*
X187149619Y-96934262D01*
X187361286Y-96299262D01*
X187572952Y-96934262D02*
X187572952Y-96510929D01*
X187572952Y-96299262D02*
X187542714Y-96329500D01*
X187572952Y-96359738D01*
X187603191Y-96329500D01*
X187572952Y-96299262D01*
X187572952Y-96359738D01*
X187875333Y-96510929D02*
X187875333Y-96934262D01*
X187875333Y-96571405D02*
X187905572Y-96541167D01*
X187966048Y-96510929D01*
X188056762Y-96510929D01*
X188117238Y-96541167D01*
X188147476Y-96601643D01*
X188147476Y-96934262D01*
X189236048Y-96299262D02*
X188933667Y-96299262D01*
X188903429Y-96601643D01*
X188933667Y-96571405D01*
X188994144Y-96541167D01*
X189145334Y-96541167D01*
X189205810Y-96571405D01*
X189236048Y-96601643D01*
X189266287Y-96662119D01*
X189266287Y-96813310D01*
X189236048Y-96873786D01*
X189205810Y-96904024D01*
X189145334Y-96934262D01*
X188994144Y-96934262D01*
X188933667Y-96904024D01*
X188903429Y-96873786D01*
X189447715Y-96299262D02*
X189659382Y-96934262D01*
X189871049Y-96299262D01*
X171271594Y-97537512D02*
X171634451Y-97537512D01*
X171453023Y-98172512D02*
X171453023Y-97537512D01*
X172088023Y-98142274D02*
X172027547Y-98172512D01*
X171906595Y-98172512D01*
X171846118Y-98142274D01*
X171815880Y-98081798D01*
X171815880Y-97839893D01*
X171846118Y-97779417D01*
X171906595Y-97749179D01*
X172027547Y-97749179D01*
X172088023Y-97779417D01*
X172118261Y-97839893D01*
X172118261Y-97900369D01*
X171815880Y-97960845D01*
X172632309Y-98142274D02*
X172571833Y-98172512D01*
X172450881Y-98172512D01*
X172390404Y-98142274D01*
X172360166Y-98081798D01*
X172360166Y-97839893D01*
X172390404Y-97779417D01*
X172450881Y-97749179D01*
X172571833Y-97749179D01*
X172632309Y-97779417D01*
X172662547Y-97839893D01*
X172662547Y-97900369D01*
X172360166Y-97960845D01*
X172934690Y-97749179D02*
X172934690Y-98172512D01*
X172934690Y-97809655D02*
X172964929Y-97779417D01*
X173025405Y-97749179D01*
X173116119Y-97749179D01*
X173176595Y-97779417D01*
X173206833Y-97839893D01*
X173206833Y-98172512D01*
X173478976Y-98142274D02*
X173539453Y-98172512D01*
X173660405Y-98172512D01*
X173720881Y-98142274D01*
X173751119Y-98081798D01*
X173751119Y-98051560D01*
X173720881Y-97991083D01*
X173660405Y-97960845D01*
X173569691Y-97960845D01*
X173509214Y-97930607D01*
X173478976Y-97870131D01*
X173478976Y-97839893D01*
X173509214Y-97779417D01*
X173569691Y-97749179D01*
X173660405Y-97749179D01*
X173720881Y-97779417D01*
X173962786Y-97749179D02*
X174113977Y-98172512D01*
X174265167Y-97749179D02*
X174113977Y-98172512D01*
X174053501Y-98323702D01*
X174023262Y-98353940D01*
X173962786Y-98384179D01*
X172133381Y-98615500D02*
X172072904Y-98585262D01*
X171982190Y-98585262D01*
X171891476Y-98615500D01*
X171831000Y-98675976D01*
X171800761Y-98736452D01*
X171770523Y-98857405D01*
X171770523Y-98948119D01*
X171800761Y-99069071D01*
X171831000Y-99129548D01*
X171891476Y-99190024D01*
X171982190Y-99220262D01*
X172042666Y-99220262D01*
X172133381Y-99190024D01*
X172163619Y-99159786D01*
X172163619Y-98948119D01*
X172042666Y-98948119D01*
X172526476Y-99220262D02*
X172466000Y-99190024D01*
X172435761Y-99159786D01*
X172405523Y-99099310D01*
X172405523Y-98917881D01*
X172435761Y-98857405D01*
X172466000Y-98827167D01*
X172526476Y-98796929D01*
X172617190Y-98796929D01*
X172677666Y-98827167D01*
X172707904Y-98857405D01*
X172738142Y-98917881D01*
X172738142Y-99099310D01*
X172707904Y-99159786D01*
X172677666Y-99190024D01*
X172617190Y-99220262D01*
X172526476Y-99220262D01*
X173252190Y-99190024D02*
X173191714Y-99220262D01*
X173070762Y-99220262D01*
X173010285Y-99190024D01*
X172980047Y-99129548D01*
X172980047Y-98887643D01*
X173010285Y-98827167D01*
X173070762Y-98796929D01*
X173191714Y-98796929D01*
X173252190Y-98827167D01*
X173282428Y-98887643D01*
X173282428Y-98948119D01*
X172980047Y-99008595D01*
X173524333Y-99190024D02*
X173584810Y-99220262D01*
X173705762Y-99220262D01*
X173766238Y-99190024D01*
X173796476Y-99129548D01*
X173796476Y-99099310D01*
X173766238Y-99038833D01*
X173705762Y-99008595D01*
X173615048Y-99008595D01*
X173554571Y-98978357D01*
X173524333Y-98917881D01*
X173524333Y-98887643D01*
X173554571Y-98827167D01*
X173615048Y-98796929D01*
X173705762Y-98796929D01*
X173766238Y-98827167D01*
X171861238Y-100268012D02*
X171861238Y-99633012D01*
X171861238Y-99935393D02*
X172224096Y-99935393D01*
X172224096Y-100268012D02*
X172224096Y-99633012D01*
X172768381Y-100237774D02*
X172707905Y-100268012D01*
X172586953Y-100268012D01*
X172526476Y-100237774D01*
X172496238Y-100177298D01*
X172496238Y-99935393D01*
X172526476Y-99874917D01*
X172586953Y-99844679D01*
X172707905Y-99844679D01*
X172768381Y-99874917D01*
X172798619Y-99935393D01*
X172798619Y-99995869D01*
X172496238Y-100056345D01*
X173070762Y-100268012D02*
X173070762Y-99844679D01*
X173070762Y-99965631D02*
X173101001Y-99905155D01*
X173131239Y-99874917D01*
X173191715Y-99844679D01*
X173252191Y-99844679D01*
X173705762Y-100237774D02*
X173645286Y-100268012D01*
X173524334Y-100268012D01*
X173463857Y-100237774D01*
X173433619Y-100177298D01*
X173433619Y-99935393D01*
X173463857Y-99874917D01*
X173524334Y-99844679D01*
X173645286Y-99844679D01*
X173705762Y-99874917D01*
X173736000Y-99935393D01*
X173736000Y-99995869D01*
X173433619Y-100056345D01*
X167219691Y-96266000D02*
X167159214Y-96235762D01*
X167068500Y-96235762D01*
X166977786Y-96266000D01*
X166917310Y-96326476D01*
X166887071Y-96386952D01*
X166856833Y-96507905D01*
X166856833Y-96598619D01*
X166887071Y-96719571D01*
X166917310Y-96780048D01*
X166977786Y-96840524D01*
X167068500Y-96870762D01*
X167128976Y-96870762D01*
X167219691Y-96840524D01*
X167249929Y-96810286D01*
X167249929Y-96598619D01*
X167128976Y-96598619D01*
X167522071Y-96870762D02*
X167522071Y-96235762D01*
X167884929Y-96870762D01*
X167884929Y-96235762D01*
X168187309Y-96870762D02*
X168187309Y-96235762D01*
X168338500Y-96235762D01*
X168429214Y-96266000D01*
X168489690Y-96326476D01*
X168519929Y-96386952D01*
X168550167Y-96507905D01*
X168550167Y-96598619D01*
X168519929Y-96719571D01*
X168489690Y-96780048D01*
X168429214Y-96840524D01*
X168338500Y-96870762D01*
X168187309Y-96870762D01*
D12*
X158750000Y-130810000D02*
X158750000Y-95250000D01*
X163830000Y-97790000D02*
X163830000Y-130810000D01*
X158750000Y-130810000D02*
X163830000Y-130810000D01*
X158750000Y-95250000D02*
X161290000Y-95250000D01*
X163830000Y-95250000D02*
X163830000Y-97790000D01*
X161290000Y-95250000D02*
X161290000Y-97790000D01*
X161290000Y-97790000D02*
X163830000Y-97790000D01*
X163830000Y-95250000D02*
X161290000Y-95250000D01*
X181610000Y-130810000D02*
X181610000Y-95250000D01*
X186690000Y-97790000D02*
X186690000Y-130810000D01*
X181610000Y-130810000D02*
X186690000Y-130810000D01*
X181610000Y-95250000D02*
X184150000Y-95250000D01*
X186690000Y-95250000D02*
X186690000Y-97790000D01*
X184150000Y-95250000D02*
X184150000Y-97790000D01*
X184150000Y-97790000D02*
X186690000Y-97790000D01*
X186690000Y-95250000D02*
X184150000Y-95250000D01*
D13*
X158978600Y-142712440D02*
G75*
G02X158478220Y-142212060I0J500380D01*
G01*
X158978600Y-141711680D02*
X167977820Y-141711680D01*
X167477440Y-142212060D02*
G75*
G02X167977820Y-141711680I500380J0D01*
G01*
X157480000Y-142161260D02*
X157480000Y-136161780D01*
X157480000Y-134411720D02*
X157480000Y-134561580D01*
X157480000Y-133311900D02*
X157480000Y-132511800D01*
X157977840Y-133009640D02*
G75*
G02X157480000Y-132511800I0J497840D01*
G01*
X157977840Y-132011420D02*
X168478200Y-132011420D01*
X169478960Y-133962140D02*
X169478960Y-133060440D01*
X169478960Y-142161260D02*
X169478960Y-135460740D01*
D14*
X171450000Y-96520000D02*
X173990000Y-96520000D01*
X173990000Y-96520000D02*
X173990000Y-95250000D01*
X173990000Y-95250000D02*
X181610000Y-95250000D01*
X181610000Y-95250000D02*
X181610000Y-130810000D01*
X181610000Y-130810000D02*
X163830000Y-130810000D01*
X163830000Y-130810000D02*
X163830000Y-95250000D01*
X163830000Y-95250000D02*
X171450000Y-95250000D01*
X171450000Y-95250000D02*
X171450000Y-96520000D01*
D12*
X157579060Y-97889060D02*
X157579060Y-97690940D01*
X157579060Y-97690940D02*
X157380940Y-97690940D01*
X157380940Y-97889060D02*
X157380940Y-97690940D01*
X157579060Y-97889060D02*
X157380940Y-97889060D01*
X158178500Y-97340420D02*
X158178500Y-96992440D01*
X158178500Y-96992440D02*
X157929580Y-96992440D01*
X157929580Y-97340420D02*
X157929580Y-96992440D01*
X158178500Y-97340420D02*
X157929580Y-97340420D01*
X158178500Y-96992440D02*
X158178500Y-96890840D01*
X158178500Y-96890840D02*
X156982160Y-96890840D01*
X156982160Y-96992440D02*
X156982160Y-96890840D01*
X158178500Y-96992440D02*
X156982160Y-96992440D01*
X156931360Y-96992440D02*
X156931360Y-96890840D01*
X156931360Y-96890840D02*
X156781500Y-96890840D01*
X156781500Y-96992440D02*
X156781500Y-96890840D01*
X156931360Y-96992440D02*
X156781500Y-96992440D01*
X158178500Y-98689160D02*
X158178500Y-98587560D01*
X158178500Y-98587560D02*
X156982160Y-98587560D01*
X156982160Y-98689160D02*
X156982160Y-98587560D01*
X158178500Y-98689160D02*
X156982160Y-98689160D01*
X156931360Y-98689160D02*
X156931360Y-98587560D01*
X156931360Y-98587560D02*
X156781500Y-98587560D01*
X156781500Y-98689160D02*
X156781500Y-98587560D01*
X156931360Y-98689160D02*
X156781500Y-98689160D01*
X158178500Y-97340420D02*
X158178500Y-97190560D01*
X158178500Y-97190560D02*
X157929580Y-97190560D01*
X157929580Y-97340420D02*
X157929580Y-97190560D01*
X158178500Y-97340420D02*
X157929580Y-97340420D01*
X158229300Y-96240600D02*
X158229300Y-99339400D01*
X158229300Y-99339400D02*
X156730700Y-99339400D01*
X156730700Y-99339400D02*
X156730700Y-96240600D01*
X156730700Y-96240600D02*
X158229300Y-96240600D01*
X157979354Y-98337262D02*
G75*
G03X157977840Y-97241360I-499354J547262D01*
G01*
X156981602Y-98338133D02*
G75*
G03X157977840Y-98338640I498398J548133D01*
G01*
X156980646Y-97242738D02*
G75*
G03X156982160Y-98338640I499354J-547262D01*
G01*
X157978398Y-97241867D02*
G75*
G03X156982160Y-97241360I-498398J-548133D01*
G01*
X172120000Y-124855000D02*
X173320000Y-124855000D01*
X173320000Y-126605000D02*
X172120000Y-126605000D01*
X158355000Y-103286000D02*
X158355000Y-104486000D01*
X156605000Y-104486000D02*
X156605000Y-103286000D01*
X172120000Y-103265000D02*
X173320000Y-103265000D01*
X173320000Y-105015000D02*
X172120000Y-105015000D01*
X173482000Y-132588000D02*
X173482000Y-145796000D01*
X186944000Y-132588000D02*
X186944000Y-145796000D01*
X173482000Y-145796000D02*
X186944000Y-145796000D01*
X186182000Y-132588000D02*
X186944000Y-132588000D01*
X173482000Y-132588000D02*
X186182000Y-132588000D01*
D15*
X162995792Y-141859363D02*
X163460249Y-141859363D01*
X163228020Y-142091591D02*
X163228020Y-141627134D01*
X160745352Y-141859363D02*
X161209809Y-141859363D01*
X166728140Y-142033534D02*
X166757168Y-142062563D01*
X166728140Y-142091591D01*
X166699111Y-142062563D01*
X166728140Y-142033534D01*
X166728140Y-142091591D01*
D12*
X172614167Y-124239262D02*
X172402500Y-123936881D01*
X172251309Y-124239262D02*
X172251309Y-123604262D01*
X172493214Y-123604262D01*
X172553690Y-123634500D01*
X172583929Y-123664738D01*
X172614167Y-123725214D01*
X172614167Y-123815929D01*
X172583929Y-123876405D01*
X172553690Y-123906643D01*
X172493214Y-123936881D01*
X172251309Y-123936881D01*
X173218929Y-124239262D02*
X172856071Y-124239262D01*
X173037500Y-124239262D02*
X173037500Y-123604262D01*
X172977024Y-123694976D01*
X172916548Y-123755452D01*
X172856071Y-123785690D01*
X157310667Y-104173262D02*
X157099000Y-103870881D01*
X156947809Y-104173262D02*
X156947809Y-103538262D01*
X157189714Y-103538262D01*
X157250190Y-103568500D01*
X157280429Y-103598738D01*
X157310667Y-103659214D01*
X157310667Y-103749929D01*
X157280429Y-103810405D01*
X157250190Y-103840643D01*
X157189714Y-103870881D01*
X156947809Y-103870881D01*
X157552571Y-103598738D02*
X157582809Y-103568500D01*
X157643286Y-103538262D01*
X157794476Y-103538262D01*
X157854952Y-103568500D01*
X157885190Y-103598738D01*
X157915429Y-103659214D01*
X157915429Y-103719690D01*
X157885190Y-103810405D01*
X157522333Y-104173262D01*
X157915429Y-104173262D01*
X172550667Y-102649262D02*
X172339000Y-102346881D01*
X172187809Y-102649262D02*
X172187809Y-102014262D01*
X172429714Y-102014262D01*
X172490190Y-102044500D01*
X172520429Y-102074738D01*
X172550667Y-102135214D01*
X172550667Y-102225929D01*
X172520429Y-102286405D01*
X172490190Y-102316643D01*
X172429714Y-102346881D01*
X172187809Y-102346881D01*
X172762333Y-102014262D02*
X173155429Y-102014262D01*
X172943762Y-102256167D01*
X173034476Y-102256167D01*
X173094952Y-102286405D01*
X173125190Y-102316643D01*
X173155429Y-102377119D01*
X173155429Y-102528310D01*
X173125190Y-102588786D01*
X173094952Y-102619024D01*
X173034476Y-102649262D01*
X172853048Y-102649262D01*
X172792571Y-102619024D01*
X172762333Y-102588786D01*
M02*
