%FSLAX46Y46*%
G04 Gerber Fmt 4.6, Leading zero omitted, Abs format (unit mm)*
G04 Created by KiCad (PCBNEW (2014-10-27 BZR 5228)-product) date 4/13/2015 9:46:14 PM*
%MOMM*%
G01*
G04 APERTURE LIST*
%ADD10C,0.100000*%
%ADD11R,1.727200X1.727200*%
%ADD12O,1.727200X1.727200*%
%ADD13R,1.399540X1.498600*%
%ADD14R,1.297940X1.498600*%
%ADD15R,0.698500X1.747520*%
%ADD16R,0.698500X2.032000*%
%ADD17R,0.797560X1.498600*%
%ADD18R,1.399540X0.998220*%
%ADD19R,0.797560X1.399540*%
%ADD20R,0.998220X1.549400*%
%ADD21O,1.447800X1.447800*%
%ADD22R,1.800860X1.597660*%
%ADD23R,1.500000X1.300000*%
%ADD24R,1.300000X1.500000*%
%ADD25C,1.524000*%
%ADD26C,3.810000*%
%ADD27C,0.889000*%
%ADD28C,0.609600*%
%ADD29C,0.254000*%
%ADD30C,0.304800*%
G04 APERTURE END LIST*
D10*
D11*
X162560000Y-96520000D03*
D12*
X160020000Y-96520000D03*
X162560000Y-99060000D03*
X160020000Y-99060000D03*
X162560000Y-101600000D03*
X160020000Y-101600000D03*
X162560000Y-104140000D03*
X160020000Y-104140000D03*
X162560000Y-106680000D03*
X160020000Y-106680000D03*
X162560000Y-109220000D03*
X160020000Y-109220000D03*
X162560000Y-111760000D03*
X160020000Y-111760000D03*
X162560000Y-114300000D03*
X160020000Y-114300000D03*
X162560000Y-116840000D03*
X160020000Y-116840000D03*
X162560000Y-119380000D03*
X160020000Y-119380000D03*
X162560000Y-121920000D03*
X160020000Y-121920000D03*
X162560000Y-124460000D03*
X160020000Y-124460000D03*
X162560000Y-127000000D03*
X160020000Y-127000000D03*
X162560000Y-129540000D03*
X160020000Y-129540000D03*
D11*
X185420000Y-96520000D03*
D12*
X182880000Y-96520000D03*
X185420000Y-99060000D03*
X182880000Y-99060000D03*
X185420000Y-101600000D03*
X182880000Y-101600000D03*
X185420000Y-104140000D03*
X182880000Y-104140000D03*
X185420000Y-106680000D03*
X182880000Y-106680000D03*
X185420000Y-109220000D03*
X182880000Y-109220000D03*
X185420000Y-111760000D03*
X182880000Y-111760000D03*
X185420000Y-114300000D03*
X182880000Y-114300000D03*
X185420000Y-116840000D03*
X182880000Y-116840000D03*
X185420000Y-119380000D03*
X182880000Y-119380000D03*
X185420000Y-121920000D03*
X182880000Y-121920000D03*
X185420000Y-124460000D03*
X182880000Y-124460000D03*
X185420000Y-127000000D03*
X182880000Y-127000000D03*
X185420000Y-129540000D03*
X182880000Y-129540000D03*
D13*
X169128440Y-142961360D03*
D14*
X157827980Y-142961360D03*
D15*
X159077660Y-143060420D03*
X160129220Y-143060420D03*
D16*
X161229040Y-143060420D03*
D15*
X162328860Y-143060420D03*
D16*
X163428680Y-143060420D03*
D15*
X164528500Y-143060420D03*
X165628320Y-143060420D03*
X166728140Y-143060420D03*
D17*
X157528260Y-135361680D03*
D18*
X157827980Y-133860540D03*
D19*
X169428160Y-134711440D03*
D20*
X169077640Y-132260340D03*
D21*
X165100000Y-96520000D03*
X165100000Y-99060000D03*
X165100000Y-101600000D03*
X165100000Y-104140000D03*
X165100000Y-106680000D03*
X165100000Y-109220000D03*
X165100000Y-111760000D03*
X165100000Y-114300000D03*
X165100000Y-116840000D03*
X165100000Y-119380000D03*
X165100000Y-121920000D03*
X165100000Y-124460000D03*
X165100000Y-127000000D03*
X165100000Y-129540000D03*
X167640000Y-129540000D03*
X170180000Y-129540000D03*
X172720000Y-129540000D03*
X175260000Y-129540000D03*
X177800000Y-129540000D03*
X180340000Y-129540000D03*
X180340000Y-127000000D03*
X180340000Y-124460000D03*
X180340000Y-121920000D03*
X180340000Y-119380000D03*
X180340000Y-116840000D03*
X180340000Y-114300000D03*
X180340000Y-111760000D03*
X180340000Y-109220000D03*
X180340000Y-106680000D03*
X180340000Y-104140000D03*
X180340000Y-101600000D03*
X180340000Y-99060000D03*
X180340000Y-96520000D03*
D22*
X157480000Y-99209860D03*
X157480000Y-96370140D03*
D23*
X174070000Y-125730000D03*
X171370000Y-125730000D03*
D24*
X157480000Y-105236000D03*
X157480000Y-102536000D03*
D23*
X174070000Y-104140000D03*
X171370000Y-104140000D03*
D25*
X180848000Y-134620000D03*
X178308000Y-134620000D03*
X183388000Y-134620000D03*
X177038000Y-137160000D03*
X179578000Y-137160000D03*
X182118000Y-137160000D03*
D26*
X186944000Y-139192000D03*
X173482000Y-139192000D03*
D27*
X168910000Y-137668000D03*
X162306000Y-137668000D03*
X165608000Y-135382000D03*
X163322000Y-140208000D03*
D28*
X170720000Y-104140000D02*
X165100000Y-104140000D01*
X157480000Y-96370140D02*
X159870140Y-96370140D01*
X159870140Y-96370140D02*
X160020000Y-96520000D01*
X157226000Y-101886000D02*
X157226000Y-99463860D01*
X157226000Y-99463860D02*
X157480000Y-99209860D01*
X160129220Y-143060420D02*
X160129220Y-129649220D01*
X160129220Y-129649220D02*
X160020000Y-129540000D01*
X170720000Y-125730000D02*
X168910000Y-125730000D01*
X168910000Y-125730000D02*
X165100000Y-129540000D01*
D29*
X162328860Y-137690860D02*
X162306000Y-137668000D01*
D30*
X162328860Y-143060420D02*
X162328860Y-137690860D01*
X178308000Y-131572000D02*
X180340000Y-129540000D01*
X176276000Y-131572000D02*
X178308000Y-131572000D01*
X168910000Y-137668000D02*
X176276000Y-131572000D01*
X164528500Y-143060420D02*
X164528500Y-132270500D01*
X163830000Y-128270000D02*
X165100000Y-127000000D01*
D29*
X163830000Y-131572000D02*
X163830000Y-128270000D01*
D30*
X164528500Y-132270500D02*
X163830000Y-131572000D01*
D29*
X165628320Y-143060420D02*
X165628320Y-135148320D01*
X165608000Y-135128000D02*
X165608000Y-135382000D01*
X165628320Y-135148320D02*
X165608000Y-135128000D01*
D28*
X160020000Y-114300000D02*
X159258000Y-114300000D01*
X159258000Y-114300000D02*
X157226000Y-112268000D01*
X157226000Y-112268000D02*
X157226000Y-105886000D01*
D29*
X163428680Y-143060420D02*
X163428680Y-140314680D01*
X163428680Y-140314680D02*
X163322000Y-140208000D01*
D28*
X174339000Y-104140000D02*
X177800000Y-104140000D01*
X177800000Y-104140000D02*
X180340000Y-101600000D01*
X174339000Y-126111000D02*
X174339000Y-104140000D01*
X170180000Y-129540000D02*
X170180000Y-129032000D01*
X170180000Y-129032000D02*
X171704000Y-127508000D01*
X171704000Y-127508000D02*
X172942000Y-127508000D01*
X172942000Y-127508000D02*
X174339000Y-126111000D01*
D29*
G36*
X180253552Y-95173000D02*
X179793349Y-95264540D01*
X179352491Y-95559113D01*
X179057918Y-95999971D01*
X178954478Y-96520000D01*
X179057918Y-97040029D01*
X179352491Y-97480887D01*
X179793349Y-97775460D01*
X179866446Y-97790000D01*
X179793349Y-97804540D01*
X179352491Y-98099113D01*
X179057918Y-98539971D01*
X178954478Y-99060000D01*
X179057918Y-99580029D01*
X179352491Y-100020887D01*
X179793349Y-100315460D01*
X179866446Y-100330000D01*
X179793349Y-100344540D01*
X179352491Y-100639113D01*
X179057918Y-101079971D01*
X178954478Y-101600000D01*
X178963842Y-101647079D01*
X177410722Y-103200200D01*
X175387279Y-103200200D01*
X175358327Y-103130302D01*
X175179699Y-102951673D01*
X174946310Y-102855000D01*
X174693691Y-102855000D01*
X173193691Y-102855000D01*
X172960302Y-102951673D01*
X172781673Y-103130301D01*
X172719999Y-103279193D01*
X172658327Y-103130302D01*
X172479699Y-102951673D01*
X172246310Y-102855000D01*
X171993691Y-102855000D01*
X170493691Y-102855000D01*
X170260302Y-102951673D01*
X170081673Y-103130301D01*
X170052719Y-103200200D01*
X166101598Y-103200200D01*
X166087509Y-103179113D01*
X165646651Y-102884540D01*
X165573553Y-102870000D01*
X165646651Y-102855460D01*
X166087509Y-102560887D01*
X166382082Y-102120029D01*
X166485522Y-101600000D01*
X166382082Y-101079971D01*
X166087509Y-100639113D01*
X165646651Y-100344540D01*
X165573553Y-100330000D01*
X165646651Y-100315460D01*
X166087509Y-100020887D01*
X166382082Y-99580029D01*
X166485522Y-99060000D01*
X166382082Y-98539971D01*
X166087509Y-98099113D01*
X165646651Y-97804540D01*
X165545568Y-97784433D01*
X165915206Y-97607234D01*
X166269219Y-97212507D01*
X166416428Y-96857085D01*
X166293412Y-96647000D01*
X165227000Y-96647000D01*
X165227000Y-96667000D01*
X164973000Y-96667000D01*
X164973000Y-96647000D01*
X163906588Y-96647000D01*
X163904099Y-96651249D01*
X163899850Y-96647000D01*
X162687000Y-96647000D01*
X162687000Y-96667000D01*
X162433000Y-96667000D01*
X162433000Y-96647000D01*
X161354469Y-96647000D01*
X161220150Y-96647000D01*
X160147000Y-96647000D01*
X160147000Y-96667000D01*
X159893000Y-96667000D01*
X159893000Y-96647000D01*
X159873000Y-96647000D01*
X159873000Y-96393000D01*
X159893000Y-96393000D01*
X159893000Y-96373000D01*
X160147000Y-96373000D01*
X160147000Y-96393000D01*
X161220150Y-96393000D01*
X161354469Y-96393000D01*
X162433000Y-96393000D01*
X162433000Y-96373000D01*
X162687000Y-96373000D01*
X162687000Y-96393000D01*
X163899850Y-96393000D01*
X163904099Y-96388750D01*
X163906588Y-96393000D01*
X164973000Y-96393000D01*
X164973000Y-96373000D01*
X165227000Y-96373000D01*
X165227000Y-96393000D01*
X166293412Y-96393000D01*
X166416428Y-96182915D01*
X166269219Y-95827493D01*
X165915206Y-95432766D01*
X165437086Y-95203561D01*
X165227002Y-95325785D01*
X165227002Y-95173000D01*
X180253552Y-95173000D01*
X180253552Y-95173000D01*
G37*
X180253552Y-95173000D02*
X179793349Y-95264540D01*
X179352491Y-95559113D01*
X179057918Y-95999971D01*
X178954478Y-96520000D01*
X179057918Y-97040029D01*
X179352491Y-97480887D01*
X179793349Y-97775460D01*
X179866446Y-97790000D01*
X179793349Y-97804540D01*
X179352491Y-98099113D01*
X179057918Y-98539971D01*
X178954478Y-99060000D01*
X179057918Y-99580029D01*
X179352491Y-100020887D01*
X179793349Y-100315460D01*
X179866446Y-100330000D01*
X179793349Y-100344540D01*
X179352491Y-100639113D01*
X179057918Y-101079971D01*
X178954478Y-101600000D01*
X178963842Y-101647079D01*
X177410722Y-103200200D01*
X175387279Y-103200200D01*
X175358327Y-103130302D01*
X175179699Y-102951673D01*
X174946310Y-102855000D01*
X174693691Y-102855000D01*
X173193691Y-102855000D01*
X172960302Y-102951673D01*
X172781673Y-103130301D01*
X172719999Y-103279193D01*
X172658327Y-103130302D01*
X172479699Y-102951673D01*
X172246310Y-102855000D01*
X171993691Y-102855000D01*
X170493691Y-102855000D01*
X170260302Y-102951673D01*
X170081673Y-103130301D01*
X170052719Y-103200200D01*
X166101598Y-103200200D01*
X166087509Y-103179113D01*
X165646651Y-102884540D01*
X165573553Y-102870000D01*
X165646651Y-102855460D01*
X166087509Y-102560887D01*
X166382082Y-102120029D01*
X166485522Y-101600000D01*
X166382082Y-101079971D01*
X166087509Y-100639113D01*
X165646651Y-100344540D01*
X165573553Y-100330000D01*
X165646651Y-100315460D01*
X166087509Y-100020887D01*
X166382082Y-99580029D01*
X166485522Y-99060000D01*
X166382082Y-98539971D01*
X166087509Y-98099113D01*
X165646651Y-97804540D01*
X165545568Y-97784433D01*
X165915206Y-97607234D01*
X166269219Y-97212507D01*
X166416428Y-96857085D01*
X166293412Y-96647000D01*
X165227000Y-96647000D01*
X165227000Y-96667000D01*
X164973000Y-96667000D01*
X164973000Y-96647000D01*
X163906588Y-96647000D01*
X163904099Y-96651249D01*
X163899850Y-96647000D01*
X162687000Y-96647000D01*
X162687000Y-96667000D01*
X162433000Y-96667000D01*
X162433000Y-96647000D01*
X161354469Y-96647000D01*
X161220150Y-96647000D01*
X160147000Y-96647000D01*
X160147000Y-96667000D01*
X159893000Y-96667000D01*
X159893000Y-96647000D01*
X159873000Y-96647000D01*
X159873000Y-96393000D01*
X159893000Y-96393000D01*
X159893000Y-96373000D01*
X160147000Y-96373000D01*
X160147000Y-96393000D01*
X161220150Y-96393000D01*
X161354469Y-96393000D01*
X162433000Y-96393000D01*
X162433000Y-96373000D01*
X162687000Y-96373000D01*
X162687000Y-96393000D01*
X163899850Y-96393000D01*
X163904099Y-96388750D01*
X163906588Y-96393000D01*
X164973000Y-96393000D01*
X164973000Y-96373000D01*
X165227000Y-96373000D01*
X165227000Y-96393000D01*
X166293412Y-96393000D01*
X166416428Y-96182915D01*
X166269219Y-95827493D01*
X165915206Y-95432766D01*
X165437086Y-95203561D01*
X165227002Y-95325785D01*
X165227002Y-95173000D01*
X180253552Y-95173000D01*
G36*
X189561000Y-145111000D02*
X189079240Y-145111000D01*
X189079240Y-138769211D01*
X188754910Y-137984273D01*
X188154886Y-137383200D01*
X187370515Y-137057501D01*
X186521211Y-137056760D01*
X185736273Y-137381090D01*
X185135200Y-137981114D01*
X184809501Y-138765485D01*
X184808760Y-139614789D01*
X185133090Y-140399727D01*
X185733114Y-141000800D01*
X186517485Y-141326499D01*
X187366789Y-141327240D01*
X188151727Y-141002910D01*
X188752800Y-140402886D01*
X189078499Y-139618515D01*
X189079240Y-138769211D01*
X189079240Y-145111000D01*
X184785242Y-145111000D01*
X184785242Y-134343339D01*
X184573010Y-133829697D01*
X184180370Y-133436371D01*
X183667100Y-133223243D01*
X183111339Y-133222758D01*
X182597697Y-133434990D01*
X182204371Y-133827630D01*
X182118050Y-134035512D01*
X182033010Y-133829697D01*
X181640370Y-133436371D01*
X181127100Y-133223243D01*
X180571339Y-133222758D01*
X180057697Y-133434990D01*
X179664371Y-133827630D01*
X179584605Y-134019727D01*
X179530397Y-133888857D01*
X179288213Y-133819392D01*
X179108608Y-133998997D01*
X179108608Y-133639787D01*
X179039143Y-133397603D01*
X178515698Y-133210856D01*
X177960632Y-133238638D01*
X177576857Y-133397603D01*
X177507392Y-133639787D01*
X178308000Y-134440395D01*
X179108608Y-133639787D01*
X179108608Y-133998997D01*
X178487605Y-134620000D01*
X179288213Y-135420608D01*
X179530397Y-135351143D01*
X179580508Y-135210682D01*
X179662990Y-135410303D01*
X180055630Y-135803629D01*
X180568900Y-136016757D01*
X181124661Y-136017242D01*
X181638303Y-135805010D01*
X182031629Y-135412370D01*
X182117949Y-135204487D01*
X182202990Y-135410303D01*
X182595630Y-135803629D01*
X183108900Y-136016757D01*
X183664661Y-136017242D01*
X184178303Y-135805010D01*
X184571629Y-135412370D01*
X184784757Y-134899100D01*
X184785242Y-134343339D01*
X184785242Y-145111000D01*
X183515242Y-145111000D01*
X183515242Y-136883339D01*
X183303010Y-136369697D01*
X182910370Y-135976371D01*
X182397100Y-135763243D01*
X181841339Y-135762758D01*
X181327697Y-135974990D01*
X180934371Y-136367630D01*
X180848050Y-136575512D01*
X180763010Y-136369697D01*
X180370370Y-135976371D01*
X179857100Y-135763243D01*
X179301339Y-135762758D01*
X179108608Y-135842392D01*
X179108608Y-135600213D01*
X178308000Y-134799605D01*
X178128395Y-134979210D01*
X178128395Y-134620000D01*
X177327787Y-133819392D01*
X177085603Y-133888857D01*
X176898856Y-134412302D01*
X176926638Y-134967368D01*
X177085603Y-135351143D01*
X177327787Y-135420608D01*
X178128395Y-134620000D01*
X178128395Y-134979210D01*
X177507392Y-135600213D01*
X177576857Y-135842397D01*
X178100302Y-136029144D01*
X178655368Y-136001362D01*
X179039143Y-135842397D01*
X179108608Y-135600213D01*
X179108608Y-135842392D01*
X178787697Y-135974990D01*
X178394371Y-136367630D01*
X178308050Y-136575512D01*
X178223010Y-136369697D01*
X177830370Y-135976371D01*
X177317100Y-135763243D01*
X176761339Y-135762758D01*
X176247697Y-135974990D01*
X175854371Y-136367630D01*
X175641243Y-136880900D01*
X175640758Y-137436661D01*
X175852990Y-137950303D01*
X176245630Y-138343629D01*
X176758900Y-138556757D01*
X177314661Y-138557242D01*
X177828303Y-138345010D01*
X178221629Y-137952370D01*
X178307949Y-137744487D01*
X178392990Y-137950303D01*
X178785630Y-138343629D01*
X179298900Y-138556757D01*
X179854661Y-138557242D01*
X180368303Y-138345010D01*
X180761629Y-137952370D01*
X180847949Y-137744487D01*
X180932990Y-137950303D01*
X181325630Y-138343629D01*
X181838900Y-138556757D01*
X182394661Y-138557242D01*
X182908303Y-138345010D01*
X183301629Y-137952370D01*
X183514757Y-137439100D01*
X183515242Y-136883339D01*
X183515242Y-145111000D01*
X175617240Y-145111000D01*
X175617240Y-138769211D01*
X175292910Y-137984273D01*
X174692886Y-137383200D01*
X173908515Y-137057501D01*
X173059211Y-137056760D01*
X172274273Y-137381090D01*
X171673200Y-137981114D01*
X171347501Y-138765485D01*
X171346760Y-139614789D01*
X171671090Y-140399727D01*
X172271114Y-141000800D01*
X173055485Y-141326499D01*
X173904789Y-141327240D01*
X174689727Y-141002910D01*
X175290800Y-140402886D01*
X175616499Y-139618515D01*
X175617240Y-138769211D01*
X175617240Y-145111000D01*
X170463210Y-145111000D01*
X170463210Y-143836969D01*
X170463210Y-143247110D01*
X170463210Y-142675610D01*
X170463210Y-142085751D01*
X170366537Y-141852362D01*
X170187909Y-141673733D01*
X169954520Y-141577060D01*
X169701901Y-141577060D01*
X169414190Y-141577060D01*
X169255440Y-141735810D01*
X169255440Y-142834360D01*
X170304460Y-142834360D01*
X170463210Y-142675610D01*
X170463210Y-143247110D01*
X170304460Y-143088360D01*
X169255440Y-143088360D01*
X169255440Y-144186910D01*
X169414190Y-144345660D01*
X169701901Y-144345660D01*
X169954520Y-144345660D01*
X170187909Y-144248987D01*
X170366537Y-144070358D01*
X170463210Y-143836969D01*
X170463210Y-145111000D01*
X169001440Y-145111000D01*
X169001440Y-144186910D01*
X169001440Y-143088360D01*
X169001440Y-142834360D01*
X169001440Y-141735810D01*
X168842690Y-141577060D01*
X168554979Y-141577060D01*
X168302360Y-141577060D01*
X168068971Y-141673733D01*
X167890343Y-141852362D01*
X167793670Y-142085751D01*
X167793670Y-142675610D01*
X167952420Y-142834360D01*
X169001440Y-142834360D01*
X169001440Y-143088360D01*
X167952420Y-143088360D01*
X167793670Y-143247110D01*
X167793670Y-143836969D01*
X167890343Y-144070358D01*
X168068971Y-144248987D01*
X168302360Y-144345660D01*
X168554979Y-144345660D01*
X168842690Y-144345660D01*
X169001440Y-144186910D01*
X169001440Y-145111000D01*
X157700980Y-145111000D01*
X157700980Y-144186910D01*
X157700980Y-143088360D01*
X157700980Y-142834360D01*
X157700980Y-141735810D01*
X157542230Y-141577060D01*
X157401260Y-141577060D01*
X157401260Y-136587230D01*
X157401260Y-135488680D01*
X156653230Y-135488680D01*
X156494480Y-135647430D01*
X156494480Y-135984671D01*
X156494480Y-136237290D01*
X156591153Y-136470679D01*
X156769782Y-136649307D01*
X157003171Y-136745980D01*
X157242510Y-136745980D01*
X157401260Y-136587230D01*
X157401260Y-141577060D01*
X157305319Y-141577060D01*
X157052700Y-141577060D01*
X156819311Y-141673733D01*
X156640683Y-141852362D01*
X156544010Y-142085751D01*
X156544010Y-142675610D01*
X156702760Y-142834360D01*
X157700980Y-142834360D01*
X157700980Y-143088360D01*
X156702760Y-143088360D01*
X156544010Y-143247110D01*
X156544010Y-143836969D01*
X156640683Y-144070358D01*
X156819311Y-144248987D01*
X157052700Y-144345660D01*
X157305319Y-144345660D01*
X157542230Y-144345660D01*
X157700980Y-144186910D01*
X157700980Y-145111000D01*
X155194000Y-145111000D01*
X155117000Y-145111000D01*
X155117000Y-95173000D01*
X155194000Y-95173000D01*
X156079854Y-95173000D01*
X156041243Y-95211612D01*
X155944570Y-95445001D01*
X155944570Y-96084390D01*
X156103320Y-96243140D01*
X157353000Y-96243140D01*
X157353000Y-96223140D01*
X157607000Y-96223140D01*
X157607000Y-96243140D01*
X157627000Y-96243140D01*
X157627000Y-96497140D01*
X157607000Y-96497140D01*
X157607000Y-96517140D01*
X157353000Y-96517140D01*
X157353000Y-96497140D01*
X156103320Y-96497140D01*
X155944570Y-96655890D01*
X155944570Y-97295279D01*
X156041243Y-97528668D01*
X156219871Y-97707297D01*
X156419533Y-97790000D01*
X156219872Y-97872703D01*
X156041243Y-98051331D01*
X155944570Y-98284720D01*
X155944570Y-98537339D01*
X155944570Y-100134999D01*
X156041243Y-100368388D01*
X156219871Y-100547017D01*
X156286200Y-100574491D01*
X156286200Y-101439513D01*
X156195000Y-101659690D01*
X156195000Y-101912309D01*
X156195000Y-103412309D01*
X156291673Y-103645698D01*
X156470301Y-103824327D01*
X156619193Y-103886000D01*
X156470302Y-103947673D01*
X156291673Y-104126301D01*
X156195000Y-104359690D01*
X156195000Y-104612309D01*
X156195000Y-106112309D01*
X156286200Y-106332485D01*
X156286200Y-112268000D01*
X156357738Y-112627646D01*
X156561461Y-112932539D01*
X158593461Y-114964539D01*
X158743827Y-115065010D01*
X158960330Y-115389029D01*
X159231172Y-115570000D01*
X158960330Y-115750971D01*
X158635474Y-116237152D01*
X158521400Y-116810641D01*
X158521400Y-116869359D01*
X158635474Y-117442848D01*
X158960330Y-117929029D01*
X159231172Y-118110000D01*
X158960330Y-118290971D01*
X158635474Y-118777152D01*
X158521400Y-119350641D01*
X158521400Y-119409359D01*
X158635474Y-119982848D01*
X158960330Y-120469029D01*
X159231172Y-120650000D01*
X158960330Y-120830971D01*
X158635474Y-121317152D01*
X158521400Y-121890641D01*
X158521400Y-121949359D01*
X158635474Y-122522848D01*
X158960330Y-123009029D01*
X159231172Y-123190000D01*
X158960330Y-123370971D01*
X158635474Y-123857152D01*
X158521400Y-124430641D01*
X158521400Y-124489359D01*
X158635474Y-125062848D01*
X158960330Y-125549029D01*
X159231172Y-125730000D01*
X158960330Y-125910971D01*
X158635474Y-126397152D01*
X158521400Y-126970641D01*
X158521400Y-127029359D01*
X158635474Y-127602848D01*
X158960330Y-128089029D01*
X159231172Y-128270000D01*
X158960330Y-128450971D01*
X158635474Y-128937152D01*
X158521400Y-129510641D01*
X158521400Y-129569359D01*
X158635474Y-130142848D01*
X158960330Y-130629029D01*
X159189420Y-130782102D01*
X159189420Y-141551660D01*
X159162750Y-141551660D01*
X159162750Y-134485960D01*
X159162750Y-134233341D01*
X159162750Y-133235121D01*
X159066077Y-133001732D01*
X158887449Y-132823103D01*
X158654060Y-132726430D01*
X158401441Y-132726430D01*
X157001901Y-132726430D01*
X156768512Y-132823103D01*
X156589883Y-133001731D01*
X156493210Y-133235120D01*
X156493210Y-133487739D01*
X156493210Y-134485959D01*
X156494480Y-134489025D01*
X156494480Y-134738689D01*
X156494480Y-135075930D01*
X156653230Y-135234680D01*
X157401260Y-135234680D01*
X157401260Y-135214680D01*
X157655260Y-135214680D01*
X157655260Y-135234680D01*
X158403290Y-135234680D01*
X158562040Y-135075930D01*
X158562040Y-134994650D01*
X158654059Y-134994650D01*
X158887448Y-134897977D01*
X159066077Y-134719349D01*
X159162750Y-134485960D01*
X159162750Y-141551660D01*
X158602101Y-141551660D01*
X158562040Y-141568253D01*
X158562040Y-136237290D01*
X158562040Y-135984671D01*
X158562040Y-135647430D01*
X158403290Y-135488680D01*
X157655260Y-135488680D01*
X157655260Y-136587230D01*
X157814010Y-136745980D01*
X158053349Y-136745980D01*
X158286738Y-136649307D01*
X158465367Y-136470679D01*
X158562040Y-136237290D01*
X158562040Y-141568253D01*
X158540780Y-141577060D01*
X158350641Y-141577060D01*
X158113730Y-141577060D01*
X157954980Y-141735810D01*
X157954980Y-142834360D01*
X157974980Y-142834360D01*
X157974980Y-143088360D01*
X157954980Y-143088360D01*
X157954980Y-144186910D01*
X158113730Y-144345660D01*
X158241864Y-144345660D01*
X158368711Y-144472507D01*
X158602100Y-144569180D01*
X158854719Y-144569180D01*
X159553219Y-144569180D01*
X159603439Y-144548377D01*
X159653660Y-144569180D01*
X159906279Y-144569180D01*
X160474524Y-144569180D01*
X160520091Y-144614747D01*
X160753480Y-144711420D01*
X161006099Y-144711420D01*
X161704599Y-144711420D01*
X161937988Y-144614747D01*
X161983555Y-144569180D01*
X162105919Y-144569180D01*
X162674164Y-144569180D01*
X162719731Y-144614747D01*
X162953120Y-144711420D01*
X163205739Y-144711420D01*
X163904239Y-144711420D01*
X164137628Y-144614747D01*
X164183195Y-144569180D01*
X164305559Y-144569180D01*
X165004059Y-144569180D01*
X165078409Y-144538382D01*
X165152760Y-144569180D01*
X165405379Y-144569180D01*
X166103879Y-144569180D01*
X166178229Y-144538382D01*
X166252580Y-144569180D01*
X166505199Y-144569180D01*
X167203699Y-144569180D01*
X167437088Y-144472507D01*
X167615717Y-144293879D01*
X167712390Y-144060490D01*
X167712390Y-143807871D01*
X167712390Y-142060351D01*
X167615717Y-141826962D01*
X167437089Y-141648333D01*
X167203700Y-141551660D01*
X166951081Y-141551660D01*
X166390320Y-141551660D01*
X166390320Y-136126357D01*
X166522622Y-135994286D01*
X166687313Y-135597668D01*
X166687687Y-135168216D01*
X166523689Y-134771311D01*
X166220286Y-134467378D01*
X165823668Y-134302687D01*
X165394216Y-134302313D01*
X165315900Y-134334672D01*
X165315900Y-132270500D01*
X165255963Y-131969175D01*
X165085276Y-131713724D01*
X164592000Y-131220448D01*
X164592000Y-130803148D01*
X165073378Y-130898900D01*
X165126622Y-130898900D01*
X165646651Y-130795460D01*
X166087509Y-130500887D01*
X166370000Y-130078110D01*
X166652491Y-130500887D01*
X167093349Y-130795460D01*
X167613378Y-130898900D01*
X167666622Y-130898900D01*
X168186651Y-130795460D01*
X168627509Y-130500887D01*
X168910000Y-130078110D01*
X169192491Y-130500887D01*
X169633349Y-130795460D01*
X170153378Y-130898900D01*
X170206622Y-130898900D01*
X170726651Y-130795460D01*
X171167509Y-130500887D01*
X171450000Y-130078110D01*
X171732491Y-130500887D01*
X172173349Y-130795460D01*
X172693378Y-130898900D01*
X172746622Y-130898900D01*
X173266651Y-130795460D01*
X173707509Y-130500887D01*
X173990000Y-130078110D01*
X174272491Y-130500887D01*
X174713349Y-130795460D01*
X175233378Y-130898900D01*
X175286622Y-130898900D01*
X175806651Y-130795460D01*
X176247509Y-130500887D01*
X176530000Y-130078110D01*
X176812491Y-130500887D01*
X177237095Y-130784600D01*
X176276000Y-130784600D01*
X176160983Y-130807478D01*
X176044332Y-130819452D01*
X176011391Y-130837233D01*
X175974675Y-130844537D01*
X175877166Y-130909689D01*
X175773979Y-130965392D01*
X170461940Y-135361562D01*
X170461940Y-135284901D01*
X170461940Y-134997190D01*
X170461940Y-134425690D01*
X170461940Y-134137979D01*
X170461940Y-133885360D01*
X170365267Y-133651971D01*
X170186638Y-133473343D01*
X170080455Y-133429360D01*
X170115077Y-133394739D01*
X170211750Y-133161350D01*
X170211750Y-132908731D01*
X170211750Y-131359331D01*
X170115077Y-131125942D01*
X169936449Y-130947313D01*
X169703060Y-130850640D01*
X169450441Y-130850640D01*
X168452221Y-130850640D01*
X168218832Y-130947313D01*
X168040203Y-131125941D01*
X167943530Y-131359330D01*
X167943530Y-131611949D01*
X167943530Y-133161349D01*
X168040203Y-133394738D01*
X168218831Y-133573367D01*
X168452220Y-133670040D01*
X168483568Y-133670040D01*
X168394380Y-133885360D01*
X168394380Y-134137979D01*
X168394380Y-134425690D01*
X168553130Y-134584440D01*
X169301160Y-134584440D01*
X169301160Y-134564440D01*
X169555160Y-134564440D01*
X169555160Y-134584440D01*
X170303190Y-134584440D01*
X170461940Y-134425690D01*
X170461940Y-134997190D01*
X170303190Y-134838440D01*
X169555160Y-134838440D01*
X169555160Y-135887460D01*
X169678021Y-136010321D01*
X169301160Y-136322206D01*
X169301160Y-135887460D01*
X169301160Y-134838440D01*
X168553130Y-134838440D01*
X168394380Y-134997190D01*
X168394380Y-135284901D01*
X168394380Y-135537520D01*
X168491053Y-135770909D01*
X168669682Y-135949537D01*
X168903071Y-136046210D01*
X169142410Y-136046210D01*
X169301160Y-135887460D01*
X169301160Y-136322206D01*
X168979318Y-136588559D01*
X168696216Y-136588313D01*
X168299311Y-136752311D01*
X167995378Y-137055714D01*
X167830687Y-137452332D01*
X167830313Y-137881784D01*
X167994311Y-138278689D01*
X168297714Y-138582622D01*
X168694332Y-138747313D01*
X169123784Y-138747687D01*
X169520689Y-138583689D01*
X169824622Y-138280286D01*
X169989313Y-137883668D01*
X169989388Y-137796786D01*
X176559565Y-132359400D01*
X178308000Y-132359400D01*
X178609325Y-132299463D01*
X178864776Y-132128776D01*
X180130940Y-130862611D01*
X180313378Y-130898900D01*
X180366622Y-130898900D01*
X180886651Y-130795460D01*
X181327509Y-130500887D01*
X181531108Y-130196179D01*
X181820330Y-130629029D01*
X182306511Y-130953885D01*
X182880000Y-131067959D01*
X183453489Y-130953885D01*
X183939670Y-130629029D01*
X184150000Y-130314248D01*
X184360330Y-130629029D01*
X184846511Y-130953885D01*
X185420000Y-131067959D01*
X185993489Y-130953885D01*
X186479670Y-130629029D01*
X186804526Y-130142848D01*
X186918600Y-129569359D01*
X186918600Y-129510641D01*
X186804526Y-128937152D01*
X186479670Y-128450971D01*
X186208827Y-128270000D01*
X186479670Y-128089029D01*
X186804526Y-127602848D01*
X186918600Y-127029359D01*
X186918600Y-126970641D01*
X186804526Y-126397152D01*
X186479670Y-125910971D01*
X186208827Y-125730000D01*
X186479670Y-125549029D01*
X186804526Y-125062848D01*
X186918600Y-124489359D01*
X186918600Y-124430641D01*
X186804526Y-123857152D01*
X186479670Y-123370971D01*
X186208827Y-123190000D01*
X186479670Y-123009029D01*
X186804526Y-122522848D01*
X186918600Y-121949359D01*
X186918600Y-121890641D01*
X186804526Y-121317152D01*
X186479670Y-120830971D01*
X186208827Y-120650000D01*
X186479670Y-120469029D01*
X186804526Y-119982848D01*
X186918600Y-119409359D01*
X186918600Y-119350641D01*
X186804526Y-118777152D01*
X186479670Y-118290971D01*
X186208827Y-118110000D01*
X186479670Y-117929029D01*
X186804526Y-117442848D01*
X186918600Y-116869359D01*
X186918600Y-116810641D01*
X186804526Y-116237152D01*
X186479670Y-115750971D01*
X186208827Y-115570000D01*
X186479670Y-115389029D01*
X186804526Y-114902848D01*
X186918600Y-114329359D01*
X186918600Y-114270641D01*
X186804526Y-113697152D01*
X186479670Y-113210971D01*
X186208827Y-113030000D01*
X186479670Y-112849029D01*
X186804526Y-112362848D01*
X186918600Y-111789359D01*
X186918600Y-111730641D01*
X186804526Y-111157152D01*
X186479670Y-110670971D01*
X186208827Y-110490000D01*
X186479670Y-110309029D01*
X186804526Y-109822848D01*
X186918600Y-109249359D01*
X186918600Y-109190641D01*
X186804526Y-108617152D01*
X186479670Y-108130971D01*
X186208827Y-107950000D01*
X186479670Y-107769029D01*
X186804526Y-107282848D01*
X186918600Y-106709359D01*
X186918600Y-106650641D01*
X186804526Y-106077152D01*
X186479670Y-105590971D01*
X186208827Y-105410000D01*
X186479670Y-105229029D01*
X186804526Y-104742848D01*
X186918600Y-104169359D01*
X186918600Y-104110641D01*
X186804526Y-103537152D01*
X186479670Y-103050971D01*
X186208827Y-102870000D01*
X186479670Y-102689029D01*
X186804526Y-102202848D01*
X186918600Y-101629359D01*
X186918600Y-101570641D01*
X186804526Y-100997152D01*
X186479670Y-100510971D01*
X186208827Y-100330000D01*
X186479670Y-100149029D01*
X186804526Y-99662848D01*
X186918600Y-99089359D01*
X186918600Y-99030641D01*
X186804526Y-98457152D01*
X186489473Y-97985643D01*
X186643298Y-97921927D01*
X186821927Y-97743299D01*
X186918600Y-97509910D01*
X186918600Y-97257291D01*
X186918600Y-95530091D01*
X186821927Y-95296702D01*
X186698225Y-95173000D01*
X189561000Y-95173000D01*
X189561000Y-145111000D01*
X189561000Y-145111000D01*
G37*
X189561000Y-145111000D02*
X189079240Y-145111000D01*
X189079240Y-138769211D01*
X188754910Y-137984273D01*
X188154886Y-137383200D01*
X187370515Y-137057501D01*
X186521211Y-137056760D01*
X185736273Y-137381090D01*
X185135200Y-137981114D01*
X184809501Y-138765485D01*
X184808760Y-139614789D01*
X185133090Y-140399727D01*
X185733114Y-141000800D01*
X186517485Y-141326499D01*
X187366789Y-141327240D01*
X188151727Y-141002910D01*
X188752800Y-140402886D01*
X189078499Y-139618515D01*
X189079240Y-138769211D01*
X189079240Y-145111000D01*
X184785242Y-145111000D01*
X184785242Y-134343339D01*
X184573010Y-133829697D01*
X184180370Y-133436371D01*
X183667100Y-133223243D01*
X183111339Y-133222758D01*
X182597697Y-133434990D01*
X182204371Y-133827630D01*
X182118050Y-134035512D01*
X182033010Y-133829697D01*
X181640370Y-133436371D01*
X181127100Y-133223243D01*
X180571339Y-133222758D01*
X180057697Y-133434990D01*
X179664371Y-133827630D01*
X179584605Y-134019727D01*
X179530397Y-133888857D01*
X179288213Y-133819392D01*
X179108608Y-133998997D01*
X179108608Y-133639787D01*
X179039143Y-133397603D01*
X178515698Y-133210856D01*
X177960632Y-133238638D01*
X177576857Y-133397603D01*
X177507392Y-133639787D01*
X178308000Y-134440395D01*
X179108608Y-133639787D01*
X179108608Y-133998997D01*
X178487605Y-134620000D01*
X179288213Y-135420608D01*
X179530397Y-135351143D01*
X179580508Y-135210682D01*
X179662990Y-135410303D01*
X180055630Y-135803629D01*
X180568900Y-136016757D01*
X181124661Y-136017242D01*
X181638303Y-135805010D01*
X182031629Y-135412370D01*
X182117949Y-135204487D01*
X182202990Y-135410303D01*
X182595630Y-135803629D01*
X183108900Y-136016757D01*
X183664661Y-136017242D01*
X184178303Y-135805010D01*
X184571629Y-135412370D01*
X184784757Y-134899100D01*
X184785242Y-134343339D01*
X184785242Y-145111000D01*
X183515242Y-145111000D01*
X183515242Y-136883339D01*
X183303010Y-136369697D01*
X182910370Y-135976371D01*
X182397100Y-135763243D01*
X181841339Y-135762758D01*
X181327697Y-135974990D01*
X180934371Y-136367630D01*
X180848050Y-136575512D01*
X180763010Y-136369697D01*
X180370370Y-135976371D01*
X179857100Y-135763243D01*
X179301339Y-135762758D01*
X179108608Y-135842392D01*
X179108608Y-135600213D01*
X178308000Y-134799605D01*
X178128395Y-134979210D01*
X178128395Y-134620000D01*
X177327787Y-133819392D01*
X177085603Y-133888857D01*
X176898856Y-134412302D01*
X176926638Y-134967368D01*
X177085603Y-135351143D01*
X177327787Y-135420608D01*
X178128395Y-134620000D01*
X178128395Y-134979210D01*
X177507392Y-135600213D01*
X177576857Y-135842397D01*
X178100302Y-136029144D01*
X178655368Y-136001362D01*
X179039143Y-135842397D01*
X179108608Y-135600213D01*
X179108608Y-135842392D01*
X178787697Y-135974990D01*
X178394371Y-136367630D01*
X178308050Y-136575512D01*
X178223010Y-136369697D01*
X177830370Y-135976371D01*
X177317100Y-135763243D01*
X176761339Y-135762758D01*
X176247697Y-135974990D01*
X175854371Y-136367630D01*
X175641243Y-136880900D01*
X175640758Y-137436661D01*
X175852990Y-137950303D01*
X176245630Y-138343629D01*
X176758900Y-138556757D01*
X177314661Y-138557242D01*
X177828303Y-138345010D01*
X178221629Y-137952370D01*
X178307949Y-137744487D01*
X178392990Y-137950303D01*
X178785630Y-138343629D01*
X179298900Y-138556757D01*
X179854661Y-138557242D01*
X180368303Y-138345010D01*
X180761629Y-137952370D01*
X180847949Y-137744487D01*
X180932990Y-137950303D01*
X181325630Y-138343629D01*
X181838900Y-138556757D01*
X182394661Y-138557242D01*
X182908303Y-138345010D01*
X183301629Y-137952370D01*
X183514757Y-137439100D01*
X183515242Y-136883339D01*
X183515242Y-145111000D01*
X175617240Y-145111000D01*
X175617240Y-138769211D01*
X175292910Y-137984273D01*
X174692886Y-137383200D01*
X173908515Y-137057501D01*
X173059211Y-137056760D01*
X172274273Y-137381090D01*
X171673200Y-137981114D01*
X171347501Y-138765485D01*
X171346760Y-139614789D01*
X171671090Y-140399727D01*
X172271114Y-141000800D01*
X173055485Y-141326499D01*
X173904789Y-141327240D01*
X174689727Y-141002910D01*
X175290800Y-140402886D01*
X175616499Y-139618515D01*
X175617240Y-138769211D01*
X175617240Y-145111000D01*
X170463210Y-145111000D01*
X170463210Y-143836969D01*
X170463210Y-143247110D01*
X170463210Y-142675610D01*
X170463210Y-142085751D01*
X170366537Y-141852362D01*
X170187909Y-141673733D01*
X169954520Y-141577060D01*
X169701901Y-141577060D01*
X169414190Y-141577060D01*
X169255440Y-141735810D01*
X169255440Y-142834360D01*
X170304460Y-142834360D01*
X170463210Y-142675610D01*
X170463210Y-143247110D01*
X170304460Y-143088360D01*
X169255440Y-143088360D01*
X169255440Y-144186910D01*
X169414190Y-144345660D01*
X169701901Y-144345660D01*
X169954520Y-144345660D01*
X170187909Y-144248987D01*
X170366537Y-144070358D01*
X170463210Y-143836969D01*
X170463210Y-145111000D01*
X169001440Y-145111000D01*
X169001440Y-144186910D01*
X169001440Y-143088360D01*
X169001440Y-142834360D01*
X169001440Y-141735810D01*
X168842690Y-141577060D01*
X168554979Y-141577060D01*
X168302360Y-141577060D01*
X168068971Y-141673733D01*
X167890343Y-141852362D01*
X167793670Y-142085751D01*
X167793670Y-142675610D01*
X167952420Y-142834360D01*
X169001440Y-142834360D01*
X169001440Y-143088360D01*
X167952420Y-143088360D01*
X167793670Y-143247110D01*
X167793670Y-143836969D01*
X167890343Y-144070358D01*
X168068971Y-144248987D01*
X168302360Y-144345660D01*
X168554979Y-144345660D01*
X168842690Y-144345660D01*
X169001440Y-144186910D01*
X169001440Y-145111000D01*
X157700980Y-145111000D01*
X157700980Y-144186910D01*
X157700980Y-143088360D01*
X157700980Y-142834360D01*
X157700980Y-141735810D01*
X157542230Y-141577060D01*
X157401260Y-141577060D01*
X157401260Y-136587230D01*
X157401260Y-135488680D01*
X156653230Y-135488680D01*
X156494480Y-135647430D01*
X156494480Y-135984671D01*
X156494480Y-136237290D01*
X156591153Y-136470679D01*
X156769782Y-136649307D01*
X157003171Y-136745980D01*
X157242510Y-136745980D01*
X157401260Y-136587230D01*
X157401260Y-141577060D01*
X157305319Y-141577060D01*
X157052700Y-141577060D01*
X156819311Y-141673733D01*
X156640683Y-141852362D01*
X156544010Y-142085751D01*
X156544010Y-142675610D01*
X156702760Y-142834360D01*
X157700980Y-142834360D01*
X157700980Y-143088360D01*
X156702760Y-143088360D01*
X156544010Y-143247110D01*
X156544010Y-143836969D01*
X156640683Y-144070358D01*
X156819311Y-144248987D01*
X157052700Y-144345660D01*
X157305319Y-144345660D01*
X157542230Y-144345660D01*
X157700980Y-144186910D01*
X157700980Y-145111000D01*
X155194000Y-145111000D01*
X155117000Y-145111000D01*
X155117000Y-95173000D01*
X155194000Y-95173000D01*
X156079854Y-95173000D01*
X156041243Y-95211612D01*
X155944570Y-95445001D01*
X155944570Y-96084390D01*
X156103320Y-96243140D01*
X157353000Y-96243140D01*
X157353000Y-96223140D01*
X157607000Y-96223140D01*
X157607000Y-96243140D01*
X157627000Y-96243140D01*
X157627000Y-96497140D01*
X157607000Y-96497140D01*
X157607000Y-96517140D01*
X157353000Y-96517140D01*
X157353000Y-96497140D01*
X156103320Y-96497140D01*
X155944570Y-96655890D01*
X155944570Y-97295279D01*
X156041243Y-97528668D01*
X156219871Y-97707297D01*
X156419533Y-97790000D01*
X156219872Y-97872703D01*
X156041243Y-98051331D01*
X155944570Y-98284720D01*
X155944570Y-98537339D01*
X155944570Y-100134999D01*
X156041243Y-100368388D01*
X156219871Y-100547017D01*
X156286200Y-100574491D01*
X156286200Y-101439513D01*
X156195000Y-101659690D01*
X156195000Y-101912309D01*
X156195000Y-103412309D01*
X156291673Y-103645698D01*
X156470301Y-103824327D01*
X156619193Y-103886000D01*
X156470302Y-103947673D01*
X156291673Y-104126301D01*
X156195000Y-104359690D01*
X156195000Y-104612309D01*
X156195000Y-106112309D01*
X156286200Y-106332485D01*
X156286200Y-112268000D01*
X156357738Y-112627646D01*
X156561461Y-112932539D01*
X158593461Y-114964539D01*
X158743827Y-115065010D01*
X158960330Y-115389029D01*
X159231172Y-115570000D01*
X158960330Y-115750971D01*
X158635474Y-116237152D01*
X158521400Y-116810641D01*
X158521400Y-116869359D01*
X158635474Y-117442848D01*
X158960330Y-117929029D01*
X159231172Y-118110000D01*
X158960330Y-118290971D01*
X158635474Y-118777152D01*
X158521400Y-119350641D01*
X158521400Y-119409359D01*
X158635474Y-119982848D01*
X158960330Y-120469029D01*
X159231172Y-120650000D01*
X158960330Y-120830971D01*
X158635474Y-121317152D01*
X158521400Y-121890641D01*
X158521400Y-121949359D01*
X158635474Y-122522848D01*
X158960330Y-123009029D01*
X159231172Y-123190000D01*
X158960330Y-123370971D01*
X158635474Y-123857152D01*
X158521400Y-124430641D01*
X158521400Y-124489359D01*
X158635474Y-125062848D01*
X158960330Y-125549029D01*
X159231172Y-125730000D01*
X158960330Y-125910971D01*
X158635474Y-126397152D01*
X158521400Y-126970641D01*
X158521400Y-127029359D01*
X158635474Y-127602848D01*
X158960330Y-128089029D01*
X159231172Y-128270000D01*
X158960330Y-128450971D01*
X158635474Y-128937152D01*
X158521400Y-129510641D01*
X158521400Y-129569359D01*
X158635474Y-130142848D01*
X158960330Y-130629029D01*
X159189420Y-130782102D01*
X159189420Y-141551660D01*
X159162750Y-141551660D01*
X159162750Y-134485960D01*
X159162750Y-134233341D01*
X159162750Y-133235121D01*
X159066077Y-133001732D01*
X158887449Y-132823103D01*
X158654060Y-132726430D01*
X158401441Y-132726430D01*
X157001901Y-132726430D01*
X156768512Y-132823103D01*
X156589883Y-133001731D01*
X156493210Y-133235120D01*
X156493210Y-133487739D01*
X156493210Y-134485959D01*
X156494480Y-134489025D01*
X156494480Y-134738689D01*
X156494480Y-135075930D01*
X156653230Y-135234680D01*
X157401260Y-135234680D01*
X157401260Y-135214680D01*
X157655260Y-135214680D01*
X157655260Y-135234680D01*
X158403290Y-135234680D01*
X158562040Y-135075930D01*
X158562040Y-134994650D01*
X158654059Y-134994650D01*
X158887448Y-134897977D01*
X159066077Y-134719349D01*
X159162750Y-134485960D01*
X159162750Y-141551660D01*
X158602101Y-141551660D01*
X158562040Y-141568253D01*
X158562040Y-136237290D01*
X158562040Y-135984671D01*
X158562040Y-135647430D01*
X158403290Y-135488680D01*
X157655260Y-135488680D01*
X157655260Y-136587230D01*
X157814010Y-136745980D01*
X158053349Y-136745980D01*
X158286738Y-136649307D01*
X158465367Y-136470679D01*
X158562040Y-136237290D01*
X158562040Y-141568253D01*
X158540780Y-141577060D01*
X158350641Y-141577060D01*
X158113730Y-141577060D01*
X157954980Y-141735810D01*
X157954980Y-142834360D01*
X157974980Y-142834360D01*
X157974980Y-143088360D01*
X157954980Y-143088360D01*
X157954980Y-144186910D01*
X158113730Y-144345660D01*
X158241864Y-144345660D01*
X158368711Y-144472507D01*
X158602100Y-144569180D01*
X158854719Y-144569180D01*
X159553219Y-144569180D01*
X159603439Y-144548377D01*
X159653660Y-144569180D01*
X159906279Y-144569180D01*
X160474524Y-144569180D01*
X160520091Y-144614747D01*
X160753480Y-144711420D01*
X161006099Y-144711420D01*
X161704599Y-144711420D01*
X161937988Y-144614747D01*
X161983555Y-144569180D01*
X162105919Y-144569180D01*
X162674164Y-144569180D01*
X162719731Y-144614747D01*
X162953120Y-144711420D01*
X163205739Y-144711420D01*
X163904239Y-144711420D01*
X164137628Y-144614747D01*
X164183195Y-144569180D01*
X164305559Y-144569180D01*
X165004059Y-144569180D01*
X165078409Y-144538382D01*
X165152760Y-144569180D01*
X165405379Y-144569180D01*
X166103879Y-144569180D01*
X166178229Y-144538382D01*
X166252580Y-144569180D01*
X166505199Y-144569180D01*
X167203699Y-144569180D01*
X167437088Y-144472507D01*
X167615717Y-144293879D01*
X167712390Y-144060490D01*
X167712390Y-143807871D01*
X167712390Y-142060351D01*
X167615717Y-141826962D01*
X167437089Y-141648333D01*
X167203700Y-141551660D01*
X166951081Y-141551660D01*
X166390320Y-141551660D01*
X166390320Y-136126357D01*
X166522622Y-135994286D01*
X166687313Y-135597668D01*
X166687687Y-135168216D01*
X166523689Y-134771311D01*
X166220286Y-134467378D01*
X165823668Y-134302687D01*
X165394216Y-134302313D01*
X165315900Y-134334672D01*
X165315900Y-132270500D01*
X165255963Y-131969175D01*
X165085276Y-131713724D01*
X164592000Y-131220448D01*
X164592000Y-130803148D01*
X165073378Y-130898900D01*
X165126622Y-130898900D01*
X165646651Y-130795460D01*
X166087509Y-130500887D01*
X166370000Y-130078110D01*
X166652491Y-130500887D01*
X167093349Y-130795460D01*
X167613378Y-130898900D01*
X167666622Y-130898900D01*
X168186651Y-130795460D01*
X168627509Y-130500887D01*
X168910000Y-130078110D01*
X169192491Y-130500887D01*
X169633349Y-130795460D01*
X170153378Y-130898900D01*
X170206622Y-130898900D01*
X170726651Y-130795460D01*
X171167509Y-130500887D01*
X171450000Y-130078110D01*
X171732491Y-130500887D01*
X172173349Y-130795460D01*
X172693378Y-130898900D01*
X172746622Y-130898900D01*
X173266651Y-130795460D01*
X173707509Y-130500887D01*
X173990000Y-130078110D01*
X174272491Y-130500887D01*
X174713349Y-130795460D01*
X175233378Y-130898900D01*
X175286622Y-130898900D01*
X175806651Y-130795460D01*
X176247509Y-130500887D01*
X176530000Y-130078110D01*
X176812491Y-130500887D01*
X177237095Y-130784600D01*
X176276000Y-130784600D01*
X176160983Y-130807478D01*
X176044332Y-130819452D01*
X176011391Y-130837233D01*
X175974675Y-130844537D01*
X175877166Y-130909689D01*
X175773979Y-130965392D01*
X170461940Y-135361562D01*
X170461940Y-135284901D01*
X170461940Y-134997190D01*
X170461940Y-134425690D01*
X170461940Y-134137979D01*
X170461940Y-133885360D01*
X170365267Y-133651971D01*
X170186638Y-133473343D01*
X170080455Y-133429360D01*
X170115077Y-133394739D01*
X170211750Y-133161350D01*
X170211750Y-132908731D01*
X170211750Y-131359331D01*
X170115077Y-131125942D01*
X169936449Y-130947313D01*
X169703060Y-130850640D01*
X169450441Y-130850640D01*
X168452221Y-130850640D01*
X168218832Y-130947313D01*
X168040203Y-131125941D01*
X167943530Y-131359330D01*
X167943530Y-131611949D01*
X167943530Y-133161349D01*
X168040203Y-133394738D01*
X168218831Y-133573367D01*
X168452220Y-133670040D01*
X168483568Y-133670040D01*
X168394380Y-133885360D01*
X168394380Y-134137979D01*
X168394380Y-134425690D01*
X168553130Y-134584440D01*
X169301160Y-134584440D01*
X169301160Y-134564440D01*
X169555160Y-134564440D01*
X169555160Y-134584440D01*
X170303190Y-134584440D01*
X170461940Y-134425690D01*
X170461940Y-134997190D01*
X170303190Y-134838440D01*
X169555160Y-134838440D01*
X169555160Y-135887460D01*
X169678021Y-136010321D01*
X169301160Y-136322206D01*
X169301160Y-135887460D01*
X169301160Y-134838440D01*
X168553130Y-134838440D01*
X168394380Y-134997190D01*
X168394380Y-135284901D01*
X168394380Y-135537520D01*
X168491053Y-135770909D01*
X168669682Y-135949537D01*
X168903071Y-136046210D01*
X169142410Y-136046210D01*
X169301160Y-135887460D01*
X169301160Y-136322206D01*
X168979318Y-136588559D01*
X168696216Y-136588313D01*
X168299311Y-136752311D01*
X167995378Y-137055714D01*
X167830687Y-137452332D01*
X167830313Y-137881784D01*
X167994311Y-138278689D01*
X168297714Y-138582622D01*
X168694332Y-138747313D01*
X169123784Y-138747687D01*
X169520689Y-138583689D01*
X169824622Y-138280286D01*
X169989313Y-137883668D01*
X169989388Y-137796786D01*
X176559565Y-132359400D01*
X178308000Y-132359400D01*
X178609325Y-132299463D01*
X178864776Y-132128776D01*
X180130940Y-130862611D01*
X180313378Y-130898900D01*
X180366622Y-130898900D01*
X180886651Y-130795460D01*
X181327509Y-130500887D01*
X181531108Y-130196179D01*
X181820330Y-130629029D01*
X182306511Y-130953885D01*
X182880000Y-131067959D01*
X183453489Y-130953885D01*
X183939670Y-130629029D01*
X184150000Y-130314248D01*
X184360330Y-130629029D01*
X184846511Y-130953885D01*
X185420000Y-131067959D01*
X185993489Y-130953885D01*
X186479670Y-130629029D01*
X186804526Y-130142848D01*
X186918600Y-129569359D01*
X186918600Y-129510641D01*
X186804526Y-128937152D01*
X186479670Y-128450971D01*
X186208827Y-128270000D01*
X186479670Y-128089029D01*
X186804526Y-127602848D01*
X186918600Y-127029359D01*
X186918600Y-126970641D01*
X186804526Y-126397152D01*
X186479670Y-125910971D01*
X186208827Y-125730000D01*
X186479670Y-125549029D01*
X186804526Y-125062848D01*
X186918600Y-124489359D01*
X186918600Y-124430641D01*
X186804526Y-123857152D01*
X186479670Y-123370971D01*
X186208827Y-123190000D01*
X186479670Y-123009029D01*
X186804526Y-122522848D01*
X186918600Y-121949359D01*
X186918600Y-121890641D01*
X186804526Y-121317152D01*
X186479670Y-120830971D01*
X186208827Y-120650000D01*
X186479670Y-120469029D01*
X186804526Y-119982848D01*
X186918600Y-119409359D01*
X186918600Y-119350641D01*
X186804526Y-118777152D01*
X186479670Y-118290971D01*
X186208827Y-118110000D01*
X186479670Y-117929029D01*
X186804526Y-117442848D01*
X186918600Y-116869359D01*
X186918600Y-116810641D01*
X186804526Y-116237152D01*
X186479670Y-115750971D01*
X186208827Y-115570000D01*
X186479670Y-115389029D01*
X186804526Y-114902848D01*
X186918600Y-114329359D01*
X186918600Y-114270641D01*
X186804526Y-113697152D01*
X186479670Y-113210971D01*
X186208827Y-113030000D01*
X186479670Y-112849029D01*
X186804526Y-112362848D01*
X186918600Y-111789359D01*
X186918600Y-111730641D01*
X186804526Y-111157152D01*
X186479670Y-110670971D01*
X186208827Y-110490000D01*
X186479670Y-110309029D01*
X186804526Y-109822848D01*
X186918600Y-109249359D01*
X186918600Y-109190641D01*
X186804526Y-108617152D01*
X186479670Y-108130971D01*
X186208827Y-107950000D01*
X186479670Y-107769029D01*
X186804526Y-107282848D01*
X186918600Y-106709359D01*
X186918600Y-106650641D01*
X186804526Y-106077152D01*
X186479670Y-105590971D01*
X186208827Y-105410000D01*
X186479670Y-105229029D01*
X186804526Y-104742848D01*
X186918600Y-104169359D01*
X186918600Y-104110641D01*
X186804526Y-103537152D01*
X186479670Y-103050971D01*
X186208827Y-102870000D01*
X186479670Y-102689029D01*
X186804526Y-102202848D01*
X186918600Y-101629359D01*
X186918600Y-101570641D01*
X186804526Y-100997152D01*
X186479670Y-100510971D01*
X186208827Y-100330000D01*
X186479670Y-100149029D01*
X186804526Y-99662848D01*
X186918600Y-99089359D01*
X186918600Y-99030641D01*
X186804526Y-98457152D01*
X186489473Y-97985643D01*
X186643298Y-97921927D01*
X186821927Y-97743299D01*
X186918600Y-97509910D01*
X186918600Y-97257291D01*
X186918600Y-95530091D01*
X186821927Y-95296702D01*
X186698225Y-95173000D01*
X189561000Y-95173000D01*
X189561000Y-145111000D01*
M02*
