M48
INCH,TZ
T1C0.025
T2C0.032
T3C0.038
T4C0.040
T5C0.125
%
G90
G05
T1
X63900Y-54200
X64300Y-55200
X65200Y-53300
X66500Y-54200
T2
X69700Y-54000
X70200Y-53000
X70700Y-54000
X71200Y-53000
X71700Y-54000
X72200Y-53000
T3
X65000Y-38000
X65000Y-39000
X65000Y-40000
X65000Y-41000
X65000Y-42000
X65000Y-43000
X65000Y-44000
X65000Y-45000
X65000Y-46000
X65000Y-47000
X65000Y-48000
X65000Y-49000
X65000Y-50000
X65000Y-51000
X66000Y-51000
X67000Y-51000
X68000Y-51000
X69000Y-51000
X70000Y-51000
X71000Y-38000
X71000Y-39000
X71000Y-40000
X71000Y-41000
X71000Y-42000
X71000Y-43000
X71000Y-44000
X71000Y-45000
X71000Y-46000
X71000Y-47000
X71000Y-48000
X71000Y-49000
X71000Y-50000
X71000Y-51000
T4
X63000Y-38000
X63000Y-39000
X63000Y-40000
X63000Y-41000
X63000Y-42000
X63000Y-43000
X63000Y-44000
X63000Y-45000
X63000Y-46000
X63000Y-47000
X63000Y-48000
X63000Y-49000
X63000Y-50000
X63000Y-51000
X64000Y-38000
X64000Y-39000
X64000Y-40000
X64000Y-41000
X64000Y-42000
X64000Y-43000
X64000Y-44000
X64000Y-45000
X64000Y-46000
X64000Y-47000
X64000Y-48000
X64000Y-49000
X64000Y-50000
X64000Y-51000
X72000Y-38000
X72000Y-39000
X72000Y-40000
X72000Y-41000
X72000Y-42000
X72000Y-43000
X72000Y-44000
X72000Y-45000
X72000Y-46000
X72000Y-47000
X72000Y-48000
X72000Y-49000
X72000Y-50000
X72000Y-51000
X73000Y-38000
X73000Y-39000
X73000Y-40000
X73000Y-41000
X73000Y-42000
X73000Y-43000
X73000Y-44000
X73000Y-45000
X73000Y-46000
X73000Y-47000
X73000Y-48000
X73000Y-49000
X73000Y-50000
X73000Y-51000
T5
X68300Y-54800
X73600Y-54800
T0
M30
