%FSLAX46Y46*%
G04 Gerber Fmt 4.6, Leading zero omitted, Abs format (unit mm)*
G04 Created by KiCad (PCBNEW (2014-10-27 BZR 5228)-product) date 4/13/2015 9:46:14 PM*
%MOMM*%
G01*
G04 APERTURE LIST*
%ADD10C,0.100000*%
%ADD11R,1.727200X1.727200*%
%ADD12O,1.727200X1.727200*%
%ADD13O,1.447800X1.447800*%
%ADD14C,1.524000*%
%ADD15C,3.810000*%
G04 APERTURE END LIST*
D10*
D11*
X162560000Y-96520000D03*
D12*
X160020000Y-96520000D03*
X162560000Y-99060000D03*
X160020000Y-99060000D03*
X162560000Y-101600000D03*
X160020000Y-101600000D03*
X162560000Y-104140000D03*
X160020000Y-104140000D03*
X162560000Y-106680000D03*
X160020000Y-106680000D03*
X162560000Y-109220000D03*
X160020000Y-109220000D03*
X162560000Y-111760000D03*
X160020000Y-111760000D03*
X162560000Y-114300000D03*
X160020000Y-114300000D03*
X162560000Y-116840000D03*
X160020000Y-116840000D03*
X162560000Y-119380000D03*
X160020000Y-119380000D03*
X162560000Y-121920000D03*
X160020000Y-121920000D03*
X162560000Y-124460000D03*
X160020000Y-124460000D03*
X162560000Y-127000000D03*
X160020000Y-127000000D03*
X162560000Y-129540000D03*
X160020000Y-129540000D03*
D11*
X185420000Y-96520000D03*
D12*
X182880000Y-96520000D03*
X185420000Y-99060000D03*
X182880000Y-99060000D03*
X185420000Y-101600000D03*
X182880000Y-101600000D03*
X185420000Y-104140000D03*
X182880000Y-104140000D03*
X185420000Y-106680000D03*
X182880000Y-106680000D03*
X185420000Y-109220000D03*
X182880000Y-109220000D03*
X185420000Y-111760000D03*
X182880000Y-111760000D03*
X185420000Y-114300000D03*
X182880000Y-114300000D03*
X185420000Y-116840000D03*
X182880000Y-116840000D03*
X185420000Y-119380000D03*
X182880000Y-119380000D03*
X185420000Y-121920000D03*
X182880000Y-121920000D03*
X185420000Y-124460000D03*
X182880000Y-124460000D03*
X185420000Y-127000000D03*
X182880000Y-127000000D03*
X185420000Y-129540000D03*
X182880000Y-129540000D03*
D13*
X165100000Y-96520000D03*
X165100000Y-99060000D03*
X165100000Y-101600000D03*
X165100000Y-104140000D03*
X165100000Y-106680000D03*
X165100000Y-109220000D03*
X165100000Y-111760000D03*
X165100000Y-114300000D03*
X165100000Y-116840000D03*
X165100000Y-119380000D03*
X165100000Y-121920000D03*
X165100000Y-124460000D03*
X165100000Y-127000000D03*
X165100000Y-129540000D03*
X167640000Y-129540000D03*
X170180000Y-129540000D03*
X172720000Y-129540000D03*
X175260000Y-129540000D03*
X177800000Y-129540000D03*
X180340000Y-129540000D03*
X180340000Y-127000000D03*
X180340000Y-124460000D03*
X180340000Y-121920000D03*
X180340000Y-119380000D03*
X180340000Y-116840000D03*
X180340000Y-114300000D03*
X180340000Y-111760000D03*
X180340000Y-109220000D03*
X180340000Y-106680000D03*
X180340000Y-104140000D03*
X180340000Y-101600000D03*
X180340000Y-99060000D03*
X180340000Y-96520000D03*
D14*
X180848000Y-134620000D03*
X178308000Y-134620000D03*
X183388000Y-134620000D03*
X177038000Y-137160000D03*
X179578000Y-137160000D03*
X182118000Y-137160000D03*
D15*
X186944000Y-139192000D03*
X173482000Y-139192000D03*
M02*
